<svg xmlns="http://www.w3.org/2000/svg" viewBox="0 0 358.2 358.2"><defs><style>.cls-1{fill:#0f1414;}.cls-2{fill:#141e28;}.cls-3{fill:#00c8ff;}.cls-4{fill:#1caee4;}.cls-5{fill:#f4fbff;}.cls-6{fill:#f7cb15;}.cls-7{fill:#e4f6ff;}</style></defs><title>bidnii tuhai</title><g id="Layer_2" data-name="Layer 2"><g id="Layer_1-2" data-name="Layer 1"><path class="cls-1" d="M358.2,179.1A179.1,179.1,0,1,1,179.1,0,179.09,179.09,0,0,1,358.2,179.1Z"/><path class="cls-2" d="M334.05,179.1a155,155,0,1,1-155-154.95,154.95,154.95,0,0,1,155,155Z"/><path class="cls-1" d="M243.93,274.88V97.32A8.27,8.27,0,0,0,235.65,89H149.53l-7.41,6V277.15l7.41,6h86.12a8.28,8.28,0,0,0,8.28-8.29Z"/><path class="cls-1" d="M256.62,89H231.87a8.28,8.28,0,0,1,8.29,8.28V274.88a8.29,8.29,0,0,1-8.29,8.29h24.75a8.29,8.29,0,0,0,8.28-8.29V97.32A8.28,8.28,0,0,0,256.62,89Z"/><path class="cls-1" d="M149.53,89H128a8.28,8.28,0,0,0-8.29,8.28V274.88a8.29,8.29,0,0,0,8.29,8.29h21.58Z"/><path class="cls-1" d="M233.64,224.14H176a2.94,2.94,0,0,1,0-5.87h57.69a2.94,2.94,0,0,1,0,5.87Z"/><path class="cls-1" d="M233.64,240.19H176a2.93,2.93,0,1,1,0-5.86h57.69a2.93,2.93,0,1,1,0,5.86Z"/><path class="cls-1" d="M225.52,202.58H184.07a8.12,8.12,0,0,1-8.12-8.12v-51.4a8.12,8.12,0,0,1,8.12-8.12h41.45a8.13,8.13,0,0,1,8.12,8.12v51.4a8.13,8.13,0,0,1-8.12,8.12Z"/><path class="cls-1" d="M204.79,176.63a30.33,30.33,0,0,0-28.53,20.05,8.13,8.13,0,0,0,7.81,5.9h41.45a8.13,8.13,0,0,0,7.81-5.9,30.34,30.34,0,0,0-28.54-20.05Z"/><path class="cls-1" d="M217.73,166.74a12.94,12.94,0,1,1-12.94-12.94,12.94,12.94,0,0,1,12.94,12.94Z"/><path class="cls-1" d="M127.05,123.74H112.27a7,7,0,0,1,0-13.94h14.78a7,7,0,1,1,0,13.94Z"/><path class="cls-1" d="M127.05,158.41H112.27a7,7,0,0,1,0-13.94h14.78a7,7,0,1,1,0,13.94Z"/><path class="cls-1" d="M127.05,193.07H112.27a7,7,0,0,1,0-13.94h14.78a7,7,0,1,1,0,13.94Z"/><path class="cls-1" d="M127.05,227.74H112.27a7,7,0,1,1,0-13.94h14.78a7,7,0,1,1,0,13.94Z"/><path class="cls-1" d="M127.05,262.4H112.27a7,7,0,0,1,0-13.94h14.78a7,7,0,1,1,0,13.94Z"/><path class="cls-3" d="M237.93,267.88V90.32A8.27,8.27,0,0,0,229.65,82H143.53l-7.41,6V270.15l7.41,6h86.12a8.28,8.28,0,0,0,8.28-8.29Z"/><path class="cls-4" d="M250.62,82H225.87a8.28,8.28,0,0,1,8.29,8.28V267.88a8.29,8.29,0,0,1-8.29,8.29h24.75a8.29,8.29,0,0,0,8.28-8.29V90.32A8.28,8.28,0,0,0,250.62,82Z"/><path class="cls-4" d="M143.53,82H122a8.28,8.28,0,0,0-8.29,8.28V267.88a8.29,8.29,0,0,0,8.29,8.29h21.58Z"/><path class="cls-5" d="M227.64,217.14H170a2.94,2.94,0,0,1,0-5.87h57.69a2.94,2.94,0,0,1,0,5.87Z"/><path class="cls-5" d="M227.64,233.19H170a2.93,2.93,0,1,1,0-5.86h57.69a2.93,2.93,0,1,1,0,5.86Z"/><path class="cls-5" d="M219.52,195.58H178.07a8.12,8.12,0,0,1-8.12-8.12v-51.4a8.12,8.12,0,0,1,8.12-8.12h41.45a8.13,8.13,0,0,1,8.12,8.12v51.4a8.13,8.13,0,0,1-8.12,8.12Z"/><path class="cls-6" d="M198.79,169.63a30.33,30.33,0,0,0-28.53,20.05,8.13,8.13,0,0,0,7.81,5.9h41.45a8.13,8.13,0,0,0,7.81-5.9,30.34,30.34,0,0,0-28.54-20.05Z"/><path class="cls-6" d="M211.73,159.74a12.94,12.94,0,1,1-12.94-12.94,12.94,12.94,0,0,1,12.94,12.94Z"/><path class="cls-7" d="M121.05,116.74H106.27a7,7,0,0,1,0-13.94h14.78a7,7,0,1,1,0,13.94Z"/><path class="cls-7" d="M121.05,151.41H106.27a7,7,0,0,1,0-13.94h14.78a7,7,0,1,1,0,13.94Z"/><path class="cls-7" d="M121.05,186.07H106.27a7,7,0,0,1,0-13.94h14.78a7,7,0,1,1,0,13.94Z"/><path class="cls-7" d="M121.05,220.74H106.27a7,7,0,1,1,0-13.94h14.78a7,7,0,1,1,0,13.94Z"/><path class="cls-7" d="M121.05,255.4H106.27a7,7,0,0,1,0-13.94h14.78a7,7,0,1,1,0,13.94Z"/></g></g></svg>