<svg xmlns="http://www.w3.org/2000/svg" viewBox="0 0 358.2 358.2"><defs><style>.cls-1{fill:#0f1414;}.cls-2{fill:#141e28;}.cls-3{fill:#00c8ff;}</style></defs><title>check</title><g id="Layer_2" data-name="Layer 2"><g id="Layer_1-2" data-name="Layer 1"><path class="cls-1" d="M358.2,179.1A179.1,179.1,0,1,1,179.1,0,179.09,179.09,0,0,1,358.2,179.1Z"/><path class="cls-2" d="M334.05,179.1a155,155,0,1,1-155-154.95,154.95,154.95,0,0,1,155,155Z"/><path class="cls-3" d="M270.84,105.31a9.34,9.34,0,0,0-13.15,1.1L152,231.4l-51.6-58.47a9.33,9.33,0,1,0-14,12.35l57.43,65.07.31.32a9.33,9.33,0,0,0,15.07,1.12L271.94,118.47A9.34,9.34,0,0,0,270.84,105.31Z"/></g></g></svg>