<svg xmlns="http://www.w3.org/2000/svg" viewBox="0 0 444.49 639.37"><defs><style>.cls-1{fill:#d82339;}.cls-2{fill:#e6e7e8;}</style></defs><title>check mark</title><g id="Layer_2" data-name="Layer 2"><g id="Layer_1-2" data-name="Layer 1"><path class="cls-1" d="M222.24,0C99.7,0,0,99.7,0,222.24c0,154,222.46,417.13,222.46,417.13s222-270.68,222-417.13C444.49,99.7,344.79,0,222.24,0Z"/><path class="cls-2" d="M263.68,117,154.16,172.26l-43.55-21.11L218.21,98.8a8.9,8.9,0,0,1,7.83,0Z"/><path class="cls-2" d="M333.76,151.15,222.3,205.56l-41.73-20.27-6-3L284.18,127l6,3Z"/><path class="cls-2" d="M213.38,221.24l-.13,114.48L106.5,280.84a9.24,9.24,0,0,1-4.94-8.09V166.85l45.24,22v38.6a9,9,0,0,0,18.09,0V197.72l6,2.89Z"/><path class="cls-2" d="M342.93,218.45v55L265.36,318.1l-34,17.49.13-114.47L342.8,167c.13,12.18.13,38,.13,51.49h-.49"/></g></g></svg>