<svg xmlns="http://www.w3.org/2000/svg" viewBox="0 0 358.2 358.2"><defs><style>.cls-1{fill:#0f1414;}.cls-2{fill:#141e28;}.cls-3{fill:#00c8ff;}.cls-4{fill:#fff;}.cls-5{fill:#ef5a9d;}.cls-6{fill:#e43d91;}.cls-7{fill:#d1d3d4;}.cls-8{fill:#1caee4;}</style></defs><title>Duudlagiin jolooch</title><g id="Layer_2" data-name="Layer 2"><g id="Layer_1-2" data-name="Layer 1"><path class="cls-1" d="M358.2,179.1A179.1,179.1,0,1,1,179.1,0,179.09,179.09,0,0,1,358.2,179.1Z"/><path class="cls-2" d="M334.05,179.1a155,155,0,1,1-155-154.95,154.95,154.95,0,0,1,155,155Z"/><path class="cls-1" d="M267.89,111.76A117.78,117.78,0,0,0,186.66,71.6h-.18c-1.1-.07-2.19-.12-3.29-.16h-.38c-1.22,0-2.45-.07-3.69-.07h0a117.75,117.75,0,0,0,0,235.5c1.25,0,2.49,0,3.73-.06h.23a117.75,117.75,0,0,0,84.83-195ZM197.41,286.09V237a51.4,51.4,0,0,1-21.7,3.25l-1.6-.13-.7-.08c-.59-.06-1.18-.14-1.77-.22l-1.58-.25-.73-.14c-.48-.1-1-.19-1.43-.3l-.74-.17-1.43-.36-.69-.19c-.51-.15-1-.3-1.53-.47l-.57-.18c-.7-.23-1.39-.47-2.07-.73l-.07.19h0v48.92a98.79,98.79,0,0,1-78.35-76.93l56.16,11.32a51.24,51.24,0,0,1,0-62.75L82.45,169.05a98.71,98.71,0,0,1,193.3,0l-56-11.29-.08.07a51.24,51.24,0,0,1-.07,62.64l56.15-11.31A98.78,98.78,0,0,1,197.41,286.09Z"/><circle class="cls-1" cx="179.1" cy="189.1" r="57.27"/><path class="cls-1" d="M230.69,189.1a51.59,51.59,0,1,1-15.11-36.48,51.58,51.58,0,0,1,15.11,36.48Z"/><path class="cls-1" d="M203.82,189.1a24.72,24.72,0,1,1-24.72-24.72,24.72,24.72,0,0,1,24.72,24.72Z"/><path class="cls-1" d="M169.56,189.1a24.73,24.73,0,0,1,17.13-23.53,24.72,24.72,0,1,0,0,47.06,24.73,24.73,0,0,1-17.13-23.53Z"/><path class="cls-1" d="M142.68,189.1a51.6,51.6,0,0,1,44-51,51.59,51.59,0,1,0,0,102.07,51.61,51.61,0,0,1-44-51Z"/><path class="cls-1" d="M179.1,161.35a27.75,27.75,0,1,0,27.75,27.75,27.76,27.76,0,0,0-27.75-27.75Zm0,49.44a21.69,21.69,0,1,1,21.68-21.69,21.69,21.69,0,0,1-21.68,21.69Z"/><path class="cls-1" d="M172.7,153.85a2.7,2.7,0,0,0,.49,0,36.62,36.62,0,0,1,5.91-.48c4.05,0,4.05-6.07,0-6.07a43.1,43.1,0,0,0-6.9.56,3,3,0,0,0,.5,6Z"/><path class="cls-3" d="M267.89,101.76A117.78,117.78,0,0,0,186.66,61.6h-.18c-1.1-.07-2.19-.12-3.29-.16h-.38c-1.22,0-2.45-.07-3.69-.07h0a117.75,117.75,0,0,0,0,235.5c1.25,0,2.49,0,3.73-.06h.23a117.75,117.75,0,0,0,84.83-195ZM197.41,276.09V227a51.4,51.4,0,0,1-21.7,3.25l-1.6-.13-.7-.08c-.59-.06-1.18-.14-1.77-.22l-1.58-.25-.73-.14c-.48-.1-1-.19-1.43-.3l-.74-.17-1.43-.36-.69-.19c-.51-.15-1-.3-1.53-.47l-.57-.18c-.7-.23-1.39-.47-2.07-.73l-.07.19h0v48.92a98.79,98.79,0,0,1-78.35-76.93l56.16,11.32a51.24,51.24,0,0,1,0-62.75L82.45,159.05a98.71,98.71,0,0,1,193.3,0l-56-11.29-.08.07a51.24,51.24,0,0,1-.07,62.64l56.15-11.31A98.78,98.78,0,0,1,197.41,276.09Z"/><circle class="cls-3" cx="179.1" cy="179.1" r="57.27"/><path class="cls-4" d="M230.69,179.1a51.59,51.59,0,1,1-15.11-36.48,51.58,51.58,0,0,1,15.11,36.48Z"/><path class="cls-5" d="M203.82,179.1a24.72,24.72,0,1,1-24.72-24.72,24.72,24.72,0,0,1,24.72,24.72Z"/><path class="cls-6" d="M169.56,179.1a24.73,24.73,0,0,1,17.13-23.53,24.72,24.72,0,1,0,0,47.06,24.73,24.73,0,0,1-17.13-23.53Z"/><path class="cls-7" d="M142.68,179.1a51.6,51.6,0,0,1,44-51,51.59,51.59,0,1,0,0,102.07,51.61,51.61,0,0,1-44-51Z"/><path class="cls-3" d="M179.1,151.35a27.75,27.75,0,1,0,27.75,27.75,27.76,27.76,0,0,0-27.75-27.75Zm0,49.44a21.69,21.69,0,1,1,21.68-21.69,21.69,21.69,0,0,1-21.68,21.69Z"/><path class="cls-8" d="M172.7,143.85a2.7,2.7,0,0,0,.49,0,36.62,36.62,0,0,1,5.91-.48c4.05,0,4.05-6.07,0-6.07a43.1,43.1,0,0,0-6.9.56,3,3,0,0,0,.5,6Z"/></g></g></svg>