<svg xmlns="http://www.w3.org/2000/svg" viewBox="0 0 358.2 358.2"><defs><style>.cls-1{fill:#0f1414;}.cls-2{fill:#141e28;}.cls-3{opacity:0.5;}.cls-4{fill:#00c8ff;}.cls-5{fill:#009add;}.cls-6{fill:#d1d3d4;}.cls-7{fill:#f7cb15;}.cls-8{fill:#e7ad27;}.cls-9{fill:#fff;}.cls-10{fill:#ef5a9d;}</style></defs><title>Duudlagiin zasvar</title><g id="Layer_2" data-name="Layer 2"><g id="Layer_1-2" data-name="Layer 1"><path class="cls-1" d="M358.2,179.1A179.1,179.1,0,1,1,179.1,0,179.09,179.09,0,0,1,358.2,179.1Z"/><path class="cls-2" d="M334.05,179.1a155,155,0,1,1-155-154.95,154.95,154.95,0,0,1,155,155Z"/><path class="cls-1" d="M111,198.58a78.48,78.48,0,1,1,139.53,0"/><g class="cls-3"><path class="cls-1" d="M120.78,198.59A78.51,78.51,0,0,1,185.64,84.3c-1.62-.09-3.25-.16-4.9-.16a78.47,78.47,0,0,0-78.48,78.48c0,13,3.14,25.19,8.71,32.7l139.53,3.27H120.78Z"/></g><path class="cls-1" d="M148.71,195.33a45.78,45.78,0,1,1,64.73-.67"/><path class="cls-1" d="M187.28,149.54l5.63-31a44.7,44.7,0,0,0-24.35,0l5.64,31Z"/><path class="cls-1" d="M224.83,150.44l-31,5.64v13.08l31,5.63a44.7,44.7,0,0,0,0-24.35Z"/><path class="cls-1" d="M167.66,156.08l-31-5.64a44.7,44.7,0,0,0,0,24.35l31-5.63Z"/><polygon class="cls-1" points="170.93 192.05 190.55 192.05 190.47 191.63 170.96 191.82 170.93 192.05"/><polygon class="cls-1" points="174.2 175.7 170.96 195.09 190.47 194.9 187.28 175.7 174.2 175.7"/><rect class="cls-1" x="144.77" y="159.35" width="6.54" height="6.54"/><rect class="cls-1" x="177.47" y="126.65" width="6.54" height="6.54"/><rect class="cls-1" x="210.17" y="159.35" width="6.54" height="6.54"/><path class="cls-1" d="M242.87,280.34H118.61A16.36,16.36,0,0,1,102.26,264V250.91a16.35,16.35,0,0,1,16.35-16.35H242.87a16.36,16.36,0,0,1,16.35,16.35V264A16.36,16.36,0,0,1,242.87,280.34Z"/><path class="cls-1" d="M112.07,264V250.91a16.35,16.35,0,0,1,16.35-16.35h-9.81a16.35,16.35,0,0,0-16.35,16.35V264a16.36,16.36,0,0,0,16.35,16.35h9.81A16.36,16.36,0,0,1,112.07,264Z"/><path class="cls-1" d="M110.7,255.47l5.79-2.56,5.8,2.56a3.28,3.28,0,0,0,2.64,0l5.81-2.56,5.81,2.56a3.28,3.28,0,0,0,2.64,0l5.8-2.56,5.81,2.56a3.28,3.28,0,0,0,2.64,0l5.82-2.56,5.81,2.55a3.25,3.25,0,0,0,2.63,0l5.82-2.56,5.81,2.56a3.28,3.28,0,0,0,2.64,0l5.82-2.56,5.82,2.56a3.25,3.25,0,0,0,2.63,0l5.82-2.56,5.83,2.56a3.25,3.25,0,0,0,2.63,0l5.81-2.56,5.82,2.56a3.25,3.25,0,0,0,2.63,0l5.83-2.56,5.83,2.56a3.25,3.25,0,0,0,2.63,0l5.84-2.56,5.84,2.57a3.34,3.34,0,0,0,2.63,0l5.84-2.56v-2a17,17,0,0,0-.21-2l-1.11-2.53-5.84,2.56-5.85-2.56a3.31,3.31,0,0,0-2.62,0l-5.83,2.56-5.84-2.56a3.34,3.34,0,0,0-2.63,0l-5.82,2.56-5.83-2.56a3.3,3.3,0,0,0-2.63,0l-5.81,2.56-5.82-2.56a3.25,3.25,0,0,0-2.63,0l-5.82,2.56-5.82-2.56a3.25,3.25,0,0,0-2.63,0l-5.82,2.56-5.82-2.56a3.25,3.25,0,0,0-2.63,0l-5.82,2.56-5.81-2.56a3.28,3.28,0,0,0-2.64,0l-5.82,2.56-5.81-2.56a3.34,3.34,0,0,0-2.63,0l-5.81,2.56-5.81-2.56a3.34,3.34,0,0,0-2.63,0l-5.81,2.56-5.8-2.56a3.36,3.36,0,0,0-2.64,0l-5.8,2.56-5.8-2.56-1.11,2.53a15.33,15.33,0,0,0-.21,2v2l5.8,2.56A3.28,3.28,0,0,0,110.7,255.47Z"/><path class="cls-1" d="M259.22,262.42l-1.32-3L252.06,262l-5.85-2.56a3.27,3.27,0,0,0-2.62,0L237.76,262l-5.84-2.56a3.25,3.25,0,0,0-2.63,0L223.47,262l-5.83-2.56a3.25,3.25,0,0,0-2.63,0L209.2,262l-5.82-2.56a3.25,3.25,0,0,0-2.63,0L194.93,262l-5.82-2.56a3.25,3.25,0,0,0-2.63,0L180.66,262l-5.82-2.56a3.25,3.25,0,0,0-2.63,0L166.39,262l-5.81-2.56a3.28,3.28,0,0,0-2.64,0L152.12,262l-5.81-2.56a3.25,3.25,0,0,0-2.63,0L137.87,262l-5.81-2.56a3.25,3.25,0,0,0-2.63,0L123.62,262l-5.8-2.56a3.28,3.28,0,0,0-2.64,0l-5.8,2.56-5.8-2.56-1.32,3V264a15.91,15.91,0,0,0,.21,2.09l5.59,2.47a3.28,3.28,0,0,0,2.64,0l5.79-2.56,5.8,2.56a3.32,3.32,0,0,0,2.64,0l5.81-2.56,5.81,2.56a3.28,3.28,0,0,0,2.64,0L145,266l5.81,2.56a3.28,3.28,0,0,0,2.64,0l5.82-2.56,5.81,2.55a3.25,3.25,0,0,0,2.63,0l5.82-2.56,5.81,2.56a3.28,3.28,0,0,0,2.64,0l5.82-2.56,5.82,2.56a3.25,3.25,0,0,0,2.63,0l5.82-2.56,5.83,2.56a3.25,3.25,0,0,0,2.63,0l5.81-2.56,5.82,2.56a3.25,3.25,0,0,0,2.63,0l5.83-2.56,5.83,2.56a3.25,3.25,0,0,0,2.63,0l5.84-2.56,5.84,2.57a3.34,3.34,0,0,0,2.63,0l5.63-2.47a18,18,0,0,0,.21-2.09Z"/><path class="cls-1" d="M242.87,234.56H118.61a16.36,16.36,0,0,1-16.35-16.35V205.13a16.35,16.35,0,0,1,16.35-16.35H242.87a16.36,16.36,0,0,1,16.35,16.35v13.08A16.36,16.36,0,0,1,242.87,234.56Z"/><g class="cls-3"><path class="cls-1" d="M112.07,218.21V205.13a16.35,16.35,0,0,1,16.35-16.35h-9.81a16.35,16.35,0,0,0-16.35,16.35v13.08a16.36,16.36,0,0,0,16.35,16.35h9.81A16.36,16.36,0,0,1,112.07,218.21Z"/></g><path class="cls-1" d="M110.7,209.69l5.79-2.56,5.8,2.56a3.28,3.28,0,0,0,2.64,0l5.81-2.56,5.81,2.56a3.28,3.28,0,0,0,2.64,0l5.8-2.56,5.81,2.56a3.28,3.28,0,0,0,2.64,0l5.82-2.56,5.81,2.56a3.34,3.34,0,0,0,2.63,0l5.82-2.57,5.81,2.56a3.28,3.28,0,0,0,2.64,0l5.82-2.56,5.82,2.56a3.25,3.25,0,0,0,2.63,0l5.82-2.56,5.83,2.56a3.25,3.25,0,0,0,2.63,0l5.81-2.56,5.82,2.57a3.34,3.34,0,0,0,2.63,0l5.83-2.57,5.83,2.57a3.34,3.34,0,0,0,2.63,0l5.84-2.57,5.84,2.57a3.34,3.34,0,0,0,2.63,0l5.84-2.56v-2a17,17,0,0,0-.21-2l-1.11-2.53-5.84,2.57-5.85-2.57a3.31,3.31,0,0,0-2.62,0l-5.83,2.56-5.84-2.56a3.34,3.34,0,0,0-2.63,0l-5.82,2.56-5.83-2.56a3.3,3.3,0,0,0-2.63,0l-5.81,2.56-5.82-2.56a3.25,3.25,0,0,0-2.63,0l-5.82,2.56-5.82-2.56a3.25,3.25,0,0,0-2.63,0l-5.82,2.56-5.82-2.56a3.25,3.25,0,0,0-2.63,0l-5.82,2.56-5.81-2.56a3.28,3.28,0,0,0-2.64,0l-5.82,2.56-5.81-2.55a3.25,3.25,0,0,0-2.63,0l-5.81,2.55-5.81-2.55a3.25,3.25,0,0,0-2.63,0l-5.81,2.55-5.8-2.55a3.28,3.28,0,0,0-2.64,0l-5.8,2.55-5.8-2.55-1.11,2.52a15.33,15.33,0,0,0-.21,2v2l5.8,2.56A3.28,3.28,0,0,0,110.7,209.69Z"/><path class="cls-1" d="M259.22,216.64l-1.32-3-5.84,2.57-5.85-2.57a3.27,3.27,0,0,0-2.62,0l-5.83,2.56-5.84-2.56a3.34,3.34,0,0,0-2.63,0l-5.82,2.56-5.83-2.56a3.3,3.3,0,0,0-2.63,0l-5.81,2.56-5.82-2.56a3.25,3.25,0,0,0-2.63,0l-5.82,2.56-5.82-2.56a3.25,3.25,0,0,0-2.63,0l-5.82,2.56-5.82-2.56a3.25,3.25,0,0,0-2.63,0l-5.82,2.56-5.81-2.56a3.28,3.28,0,0,0-2.64,0l-5.82,2.56-5.81-2.56a3.34,3.34,0,0,0-2.63,0l-5.81,2.56-5.81-2.56a3.34,3.34,0,0,0-2.63,0l-5.81,2.56-5.8-2.56a3.36,3.36,0,0,0-2.64,0l-5.8,2.56-5.8-2.56-1.32,3v1.57a15.91,15.91,0,0,0,.21,2.09l5.59,2.47a3.28,3.28,0,0,0,2.64,0l5.79-2.56,5.8,2.56a3.32,3.32,0,0,0,2.64,0l5.81-2.56,5.81,2.56a3.28,3.28,0,0,0,2.64,0l5.8-2.56,5.81,2.56a3.28,3.28,0,0,0,2.64,0l5.82-2.56,5.81,2.55a3.25,3.25,0,0,0,2.63,0l5.82-2.56,5.81,2.56a3.28,3.28,0,0,0,2.64,0l5.82-2.56,5.82,2.56a3.25,3.25,0,0,0,2.63,0l5.82-2.56,5.83,2.56a3.25,3.25,0,0,0,2.63,0l5.81-2.56,5.82,2.56a3.25,3.25,0,0,0,2.63,0l5.83-2.56,5.83,2.56a3.25,3.25,0,0,0,2.63,0l5.84-2.56,5.84,2.57a3.34,3.34,0,0,0,2.63,0L259,220.3a18,18,0,0,0,.21-2.09Z"/><circle class="cls-1" cx="180.74" cy="162.62" r="16.35"/><circle class="cls-1" cx="180.74" cy="162.62" r="6.54"/><path class="cls-4" d="M107.7,192.31a78.48,78.48,0,1,1,139.53,0"/><path class="cls-5" d="M117.51,192.32A78.5,78.5,0,0,1,182.37,78c-1.62-.1-3.25-.17-4.9-.17A78.47,78.47,0,0,0,99,156.35c0,13,3.14,25.19,8.71,32.7l139.53,3.27H117.51Z"/><path class="cls-6" d="M145.44,189.06a45.78,45.78,0,1,1,64.73-.67"/><path class="cls-7" d="M184,143.27l5.63-31a44.7,44.7,0,0,0-24.35,0l5.64,31Z"/><path class="cls-7" d="M221.56,144.17l-31,5.64v13.08l31,5.63a44.7,44.7,0,0,0,0-24.35Z"/><path class="cls-7" d="M164.39,149.81l-31-5.64a44.7,44.7,0,0,0,0,24.35l31-5.63Z"/><polygon class="cls-7" points="167.66 185.78 187.28 185.78 187.21 185.35 167.69 185.56 167.66 185.78"/><polygon class="cls-7" points="170.93 169.43 167.69 188.82 187.21 188.63 184.01 169.43 170.93 169.43"/><rect class="cls-8" x="141.5" y="153.08" width="6.54" height="6.54"/><rect class="cls-8" x="174.2" y="120.38" width="6.54" height="6.54"/><rect class="cls-8" x="206.9" y="153.08" width="6.54" height="6.54"/><path class="cls-4" d="M239.6,274.07H115.34A16.36,16.36,0,0,1,99,257.72V244.64a16.35,16.35,0,0,1,16.35-16.35H239.6A16.36,16.36,0,0,1,256,244.64v13.08A16.36,16.36,0,0,1,239.6,274.07Z"/><path class="cls-5" d="M108.8,257.72V244.64a16.35,16.35,0,0,1,16.35-16.35h-9.81A16.35,16.35,0,0,0,99,244.64v13.08a16.36,16.36,0,0,0,16.35,16.35h9.81A16.36,16.36,0,0,1,108.8,257.72Z"/><path class="cls-5" d="M107.43,249.2l5.79-2.56,5.8,2.56a3.28,3.28,0,0,0,2.64,0l5.81-2.56,5.81,2.56a3.28,3.28,0,0,0,2.64,0l5.8-2.56,5.81,2.56a3.28,3.28,0,0,0,2.64,0l5.82-2.56,5.81,2.55a3.25,3.25,0,0,0,2.63,0l5.82-2.56,5.81,2.56a3.28,3.28,0,0,0,2.64,0l5.82-2.56,5.82,2.56a3.25,3.25,0,0,0,2.63,0l5.82-2.56,5.83,2.56a3.25,3.25,0,0,0,2.63,0l5.81-2.56,5.82,2.56a3.25,3.25,0,0,0,2.63,0l5.83-2.56,5.83,2.56a3.25,3.25,0,0,0,2.63,0l5.84-2.56,5.84,2.57a3.34,3.34,0,0,0,2.63,0l5.84-2.56v-2a15.16,15.16,0,0,0-.21-2l-1.11-2.53-5.84,2.56-5.85-2.56a3.31,3.31,0,0,0-2.62,0l-5.83,2.56-5.84-2.56a3.34,3.34,0,0,0-2.63,0l-5.82,2.56-5.82-2.56a3.32,3.32,0,0,0-2.64,0l-5.81,2.56-5.82-2.56a3.25,3.25,0,0,0-2.63,0l-5.82,2.56-5.82-2.56a3.25,3.25,0,0,0-2.63,0l-5.82,2.56-5.82-2.56a3.25,3.25,0,0,0-2.63,0l-5.82,2.56-5.81-2.56a3.28,3.28,0,0,0-2.64,0l-5.82,2.56L143,240.07a3.34,3.34,0,0,0-2.63,0l-5.81,2.56-5.81-2.56a3.34,3.34,0,0,0-2.63,0l-5.81,2.56-5.8-2.56a3.36,3.36,0,0,0-2.64,0l-5.8,2.56-5.8-2.56L99.2,242.6a15.33,15.33,0,0,0-.21,2v2l5.8,2.56A3.28,3.28,0,0,0,107.43,249.2Z"/><path class="cls-5" d="M256,256.15l-1.32-3-5.84,2.56-5.85-2.56a3.27,3.27,0,0,0-2.62,0l-5.83,2.56-5.84-2.56a3.25,3.25,0,0,0-2.63,0l-5.82,2.56-5.82-2.56a3.28,3.28,0,0,0-2.64,0l-5.81,2.56-5.82-2.56a3.25,3.25,0,0,0-2.63,0l-5.82,2.56-5.82-2.56a3.25,3.25,0,0,0-2.63,0l-5.82,2.56-5.82-2.56a3.25,3.25,0,0,0-2.63,0l-5.82,2.56-5.81-2.56a3.28,3.28,0,0,0-2.64,0l-5.82,2.56L143,253.15a3.25,3.25,0,0,0-2.63,0l-5.81,2.56-5.81-2.56a3.25,3.25,0,0,0-2.63,0l-5.81,2.56-5.8-2.56a3.28,3.28,0,0,0-2.64,0l-5.8,2.56-5.8-2.56-1.32,3v1.57a15.91,15.91,0,0,0,.21,2.09l5.59,2.47a3.28,3.28,0,0,0,2.64,0l5.79-2.56,5.8,2.56a3.32,3.32,0,0,0,2.64,0l5.81-2.56,5.81,2.56a3.28,3.28,0,0,0,2.64,0l5.8-2.56,5.81,2.56a3.28,3.28,0,0,0,2.64,0l5.82-2.56,5.81,2.55a3.25,3.25,0,0,0,2.63,0l5.82-2.56,5.81,2.56a3.28,3.28,0,0,0,2.64,0l5.82-2.56,5.82,2.56a3.25,3.25,0,0,0,2.63,0l5.82-2.56,5.83,2.56a3.25,3.25,0,0,0,2.63,0l5.81-2.56,5.82,2.56a3.25,3.25,0,0,0,2.63,0l5.83-2.56,5.83,2.56a3.25,3.25,0,0,0,2.63,0l5.84-2.56,5.84,2.57a3.34,3.34,0,0,0,2.63,0l5.63-2.47a16.08,16.08,0,0,0,.21-2.09Z"/><path class="cls-4" d="M239.6,228.29H115.34A16.36,16.36,0,0,1,99,211.94V198.86a16.35,16.35,0,0,1,16.35-16.35H239.6A16.36,16.36,0,0,1,256,198.86v13.08A16.36,16.36,0,0,1,239.6,228.29Z"/><path class="cls-5" d="M108.8,211.94V198.86a16.35,16.35,0,0,1,16.35-16.35h-9.81A16.35,16.35,0,0,0,99,198.86v13.08a16.36,16.36,0,0,0,16.35,16.35h9.81A16.36,16.36,0,0,1,108.8,211.94Z"/><path class="cls-5" d="M107.43,203.42l5.79-2.56,5.8,2.56a3.28,3.28,0,0,0,2.64,0l5.81-2.56,5.81,2.56a3.28,3.28,0,0,0,2.64,0l5.8-2.56,5.81,2.56a3.28,3.28,0,0,0,2.64,0l5.82-2.56,5.81,2.56a3.34,3.34,0,0,0,2.63,0l5.82-2.57,5.81,2.56a3.28,3.28,0,0,0,2.64,0l5.82-2.56,5.82,2.56a3.25,3.25,0,0,0,2.63,0l5.82-2.56,5.83,2.56a3.25,3.25,0,0,0,2.63,0l5.81-2.56,5.82,2.57a3.34,3.34,0,0,0,2.63,0l5.83-2.57,5.83,2.57a3.34,3.34,0,0,0,2.63,0l5.84-2.57,5.84,2.57a3.34,3.34,0,0,0,2.63,0l5.84-2.56v-2a15.16,15.16,0,0,0-.21-2l-1.11-2.53-5.84,2.57-5.85-2.57a3.31,3.31,0,0,0-2.62,0l-5.83,2.56-5.84-2.56a3.34,3.34,0,0,0-2.63,0l-5.82,2.56-5.82-2.56a3.32,3.32,0,0,0-2.64,0l-5.81,2.56-5.82-2.56a3.25,3.25,0,0,0-2.63,0l-5.82,2.56-5.82-2.56a3.25,3.25,0,0,0-2.63,0l-5.82,2.56-5.82-2.56a3.25,3.25,0,0,0-2.63,0l-5.82,2.56-5.81-2.56a3.28,3.28,0,0,0-2.64,0l-5.82,2.56L143,194.3a3.25,3.25,0,0,0-2.63,0l-5.81,2.55-5.81-2.55a3.25,3.25,0,0,0-2.63,0l-5.81,2.55-5.8-2.55a3.28,3.28,0,0,0-2.64,0l-5.8,2.55-5.8-2.55-1.11,2.52a15.33,15.33,0,0,0-.21,2v2l5.8,2.56A3.28,3.28,0,0,0,107.43,203.42Z"/><path class="cls-5" d="M256,210.37l-1.32-3-5.84,2.57-5.85-2.57a3.27,3.27,0,0,0-2.62,0l-5.83,2.56-5.84-2.56a3.34,3.34,0,0,0-2.63,0l-5.82,2.56-5.82-2.56a3.32,3.32,0,0,0-2.64,0l-5.81,2.56-5.82-2.56a3.25,3.25,0,0,0-2.63,0l-5.82,2.56-5.82-2.56a3.25,3.25,0,0,0-2.63,0l-5.82,2.56-5.82-2.56a3.25,3.25,0,0,0-2.63,0l-5.82,2.56-5.81-2.56a3.28,3.28,0,0,0-2.64,0l-5.82,2.56L143,207.37a3.34,3.34,0,0,0-2.63,0l-5.81,2.56-5.81-2.56a3.34,3.34,0,0,0-2.63,0l-5.81,2.56-5.8-2.56a3.36,3.36,0,0,0-2.64,0l-5.8,2.56-5.8-2.56-1.32,3v1.57A15.91,15.91,0,0,0,99.2,214l5.59,2.47a3.28,3.28,0,0,0,2.64,0l5.79-2.56,5.8,2.56a3.32,3.32,0,0,0,2.64,0l5.81-2.56,5.81,2.56a3.28,3.28,0,0,0,2.64,0l5.8-2.56,5.81,2.56a3.28,3.28,0,0,0,2.64,0l5.82-2.56,5.81,2.55a3.25,3.25,0,0,0,2.63,0l5.82-2.56,5.81,2.56a3.28,3.28,0,0,0,2.64,0l5.82-2.56,5.82,2.56a3.25,3.25,0,0,0,2.63,0l5.82-2.56,5.83,2.56a3.25,3.25,0,0,0,2.63,0l5.81-2.56,5.82,2.56a3.25,3.25,0,0,0,2.63,0l5.83-2.56,5.83,2.56a3.25,3.25,0,0,0,2.63,0l5.84-2.56,5.84,2.57a3.34,3.34,0,0,0,2.63,0l5.63-2.47a16.08,16.08,0,0,0,.21-2.09Z"/><circle class="cls-9" cx="177.47" cy="156.35" r="16.35"/><circle class="cls-10" cx="177.47" cy="156.35" r="6.54"/></g></g></svg>