<svg xmlns="http://www.w3.org/2000/svg" viewBox="0 0 358.2 358.2"><defs><style>.cls-1{fill:#0f1414;}.cls-2{fill:#141e28;}.cls-3{fill:#00c8ff;}.cls-4{fill:#fff;}.cls-5{fill:#d1d3d4;}.cls-6{fill:#e6e7e8;}.cls-7{fill:#bcbec0;}.cls-8{fill:#ef5a9d;}.cls-9{fill:#e43d91;}.cls-10{fill:#009add;}.cls-11{fill:#f7cb15;}.cls-12{fill:#fede3a;}.cls-13{fill:#e7ad27;}.cls-14{fill:#136da0;}</style></defs><title>Hurgelt</title><g id="Layer_2" data-name="Layer 2"><g id="Layer_1-2" data-name="Layer 1"><path class="cls-1" d="M358.2,179.1A179.1,179.1,0,1,1,179.1,0,179.09,179.09,0,0,1,358.2,179.1Z"/><path class="cls-2" d="M334.05,179.1a155,155,0,1,1-155-154.95,154.95,154.95,0,0,1,155,155Z"/><path class="cls-1" d="M279.52,225.37a6.36,6.36,0,0,0,3.78-4.43,6.07,6.07,0,0,0,.13-2.25.07.07,0,0,1,0-.05,6.27,6.27,0,0,0-.24-1,1.59,1.59,0,0,1-.07-.2,6.12,6.12,0,0,0-.47-1,31,31,0,0,0-33.4-14.63,33.85,33.85,0,0,0,.9-3.67,4.16,4.16,0,0,0,3.45-4.65l-.93-7a4.21,4.21,0,0,0-2.82-3.42,35.71,35.71,0,0,0-7.14-14.35l-10.7-13a2.47,2.47,0,0,0,1-.61,1.85,1.85,0,0,0,.31-.37,2.27,2.27,0,0,0,.37-.89,2.07,2.07,0,0,0,.05-.5v-.15a4.27,4.27,0,0,0,4.27-4.27V135.23a4.27,4.27,0,0,0-4.27-4.27v-2a2.48,2.48,0,0,0-2.48-2.49H216.4A11.46,11.46,0,0,0,205.11,136c0,.12,0,.25-.05.37-.05.37-.08.74-.1,1.12H194.15a3.62,3.62,0,0,0-3.13,1.81h0a3.41,3.41,0,0,0-.34.78.93.93,0,0,1,0,.13,3.76,3.76,0,0,0-.12.9h0a3.68,3.68,0,0,0,3.64,3.64H205a11.46,11.46,0,0,0,8.67,10.67c0,.3.05.6.1.91L221.46,203a25.6,25.6,0,0,1-25.25,29.77H179c-2.76-11.4.67-24.41,9.9-31.52l.22-.17a11.76,11.76,0,0,0,4.28-8.4c0-.35.06-.71.06-1.07v-7.07c0-6.24-4.26-11.31-9.52-11.31H125.62c-1.32,0-2.63.08-3.93.2v-.65h22.48a4.82,4.82,0,0,0,4.82-4.82v-51a4.86,4.86,0,0,0-4.82-4.82h-51a4.82,4.82,0,0,0-4.44,2.94,4.89,4.89,0,0,0-.37,1.88v26.81a7.48,7.48,0,0,0-8.84-5.7,6.59,6.59,0,0,0-1.39.43h0a7.54,7.54,0,0,0-4.62,6.94v19.26a7.5,7.5,0,0,0,4.28,6.76,16.27,16.27,0,0,0,15.38,11h6a51.07,51.07,0,0,0-6.41,5.84c-.58.63-1.14,1.27-1.7,1.93a61.86,61.86,0,0,0-13.16,28.49h0a3.21,3.21,0,0,0-3.09,2.4,48.32,48.32,0,0,0-1.3,7.16h0c-.1.86-.18,1.72-.23,2.59s-.09,1.83-.09,2.75c0,.25,0,.5,0,.74a3.21,3.21,0,0,0,.1.62,3.49,3.49,0,0,0,.2.57,3.17,3.17,0,0,0,2.88,1.86h1.45c2,5.33,6.45,9,11.66,9h12.45a25.77,25.77,0,0,0,50.5,0H198.7c1.13,0,2.25,0,3.35-.12.34,0,.67-.06,1-.09.82-.07,1.63-.16,2.44-.28l1-.14c1.08-.17,2.15-.37,3.21-.62l.27-.07c1-.23,1.93-.5,2.88-.79.35-.1.68-.21,1-.33.72-.24,1.43-.49,2.14-.76.34-.13.68-.25,1-.39,1-.39,1.92-.8,2.86-1.26.2-.09.39-.2.58-.3.76-.38,1.52-.78,2.26-1.21l1-.62c.6-.35,1.18-.72,1.75-1.1l1-.68c.8-.56,1.59-1.14,2.36-1.75l0,0a6.21,6.21,0,0,0,3.83.31l.11,0a3.09,3.09,0,0,0,1.37-.73,25.76,25.76,0,1,0,45.3-10.14Zm-163.87-51a44.08,44.08,0,0,0-5.33,1.7H93.16a9.92,9.92,0,0,1-8.53-4.88,6.72,6.72,0,0,0,.6-.32,7.35,7.35,0,0,0,3.12-4.57v1.59a4.82,4.82,0,0,0,4.82,4.82h22.48Z"/><path class="cls-3" d="M152.9,230.82a25.77,25.77,0,1,1-25.76-25.77,25.76,25.76,0,0,1,25.76,25.77Z"/><path class="cls-4" d="M141.37,230.82a14.24,14.24,0,1,1-14.23-14.24,14.23,14.23,0,0,1,14.23,14.24Z"/><path class="cls-5" d="M134.65,230.82a7.52,7.52,0,1,1-7.51-7.52,7.51,7.51,0,0,1,7.51,7.52Z"/><path class="cls-5" d="M186.54,236H89.44c-7,0-12.74-6.77-12.74-15.13,0-32.11,21.9-58.14,48.92-58.14H184c5.26,0,9.52,5.06,9.52,11.31v7a12,12,0,0,1-4.34,9.49l-.22.17C175.54,201,174.34,223.78,186.54,236Z"/><path class="cls-6" d="M184,162.71H125.62c-27,0-48.92,26-48.92,58.14a17.73,17.73,0,0,0,.39,3.68c3-28.67,23.59-50.87,48.53-50.87H184c4.68,0,8.57,4,9.36,9.33a13.56,13.56,0,0,0,.16-1.92v-7c0-6.25-4.26-11.31-9.52-11.31Z"/><path class="cls-3" d="M285.07,230.82a25.77,25.77,0,1,1-25.77-25.77,25.77,25.77,0,0,1,25.77,25.77Z"/><path class="cls-4" d="M273.54,230.82a14.24,14.24,0,1,1-14.24-14.24,14.24,14.24,0,0,1,14.24,14.24Z"/><path class="cls-5" d="M266.82,230.82a7.52,7.52,0,1,1-7.52-7.52,7.51,7.51,0,0,1,7.52,7.52Z"/><path class="cls-6" d="M232.74,225.76l.11,0a3.23,3.23,0,0,0,1.93-1.36,31,31,0,0,1,41.11-9.49,3.23,3.23,0,0,0,2.33.38l.32-.07a6.33,6.33,0,0,0,4.1-9.31A31,31,0,0,0,225,219.2a6.34,6.34,0,0,0,7.77,6.56Z"/><path class="cls-4" d="M250.89,197.93a31,31,0,0,1,32.42,12.51,6.14,6.14,0,0,0-.67-4.55A31,31,0,0,0,225,219.2a6.17,6.17,0,0,0,2.14,5.16,31,31,0,0,1,23.77-26.43Z"/><path class="cls-5" d="M227.43,139.63l15.27,18.52a35.61,35.61,0,0,1,5.72,35.48l-4.36,11.26A48.66,48.66,0,0,1,198.69,236H130.21l2.73-13.74h63.27a25.59,25.59,0,0,0,25.25-29.77l-7.73-46.61a7.79,7.79,0,0,1,13.7-6.23Z"/><path class="cls-7" d="M196.21,222.25h8.49a25.59,25.59,0,0,0,25.24-29.77l-7.73-46.62a7.79,7.79,0,0,1,3.45-7.8,7.79,7.79,0,0,0-11.93,7.8l7.73,46.62a25.59,25.59,0,0,1-25.25,29.77Z"/><path class="cls-7" d="M206.14,228.54H137.66l1.25-6.29h-6L130.21,236h68.48a48.63,48.63,0,0,0,37.91-18.16,48.61,48.61,0,0,1-30.46,10.72Z"/><path class="cls-7" d="M132.94,222.25,130.21,236h8.49l2.73-13.73Z"/><path class="cls-8" d="M76.33,226.93h4.13a3.18,3.18,0,0,0,3.18-3.18V211.4a3.18,3.18,0,0,0-3.18-3.18H77.84a3.21,3.21,0,0,0-3.09,2.4,49.22,49.22,0,0,0-1.62,12.52c0,.25,0,.49,0,.73a3.2,3.2,0,0,0,3.18,3.06Z"/><path class="cls-9" d="M80.46,219.66H76.33a3.19,3.19,0,0,1-2.89-1.87,49.74,49.74,0,0,0-.31,5.35c0,.25,0,.49,0,.74a3.2,3.2,0,0,0,3.18,3.05h4.13a3.17,3.17,0,0,0,3.18-3.17v-7.27a3.17,3.17,0,0,1-3.18,3.17Z"/><path class="cls-4" d="M128.84,180.46a42.62,42.62,0,0,0-42.62,42.62v9.54A3.36,3.36,0,0,0,89.59,236h78.5a3.35,3.35,0,0,0,3.36-3.36v-9.54a42.62,42.62,0,0,0-42.61-42.62Z"/><path class="cls-6" d="M168.09,228.71H89.59a3.36,3.36,0,0,1-3.37-3.36v7.27A3.36,3.36,0,0,0,89.59,236h78.5a3.36,3.36,0,0,0,3.37-3.36v-7.27a3.37,3.37,0,0,1-3.37,3.36Z"/><path class="cls-6" d="M143.25,202.21H110.73a2.51,2.51,0,1,1,0-5h32.52a2.51,2.51,0,1,1,0,5Z"/><path class="cls-6" d="M138.49,211.23H106a2.51,2.51,0,0,1,0-5h32.52a2.51,2.51,0,0,1,0,5Z"/><path class="cls-6" d="M133.73,220.25H101.21a2.51,2.51,0,1,1,0-5h32.52a2.51,2.51,0,1,1,0,5Z"/><path class="cls-4" d="M231.26,145.3H216.4a11.46,11.46,0,0,1-11.46-11.46v-6.39A11.46,11.46,0,0,1,216.4,116h14.86a2.49,2.49,0,0,1,2.49,2.49V142.8a2.49,2.49,0,0,1-2.49,2.5Z"/><path class="cls-6" d="M231.26,132.11H216.4a11.46,11.46,0,0,1-11-8.06,11.61,11.61,0,0,0-.51,3.4v6.39A11.46,11.46,0,0,0,216.4,145.3h14.86a2.49,2.49,0,0,0,2.49-2.49V129.62a2.48,2.48,0,0,1-2.49,2.49Z"/><path class="cls-3" d="M212.74,134.28H194.15a3.64,3.64,0,0,1,0-7.27h18.59a3.64,3.64,0,0,1,0,7.27Z"/><path class="cls-10" d="M212.74,130.64H194.15a3.62,3.62,0,0,1-3.13-1.81,3.59,3.59,0,0,0-.5,1.81,3.63,3.63,0,0,0,3.63,3.64h18.59a3.63,3.63,0,0,0,3.63-3.64,3.59,3.59,0,0,0-.5-1.81,3.62,3.62,0,0,1-3.13,1.81Z"/><path class="cls-8" d="M233.75,142.66v-22.2a4.27,4.27,0,0,1,4.27,4.27v13.66a4.27,4.27,0,0,1-4.27,4.27Z"/><path class="cls-9" d="M233.75,134v8.64a4.27,4.27,0,0,0,4.27-4.27v-8.64a4.27,4.27,0,0,1-4.27,4.27Z"/><path class="cls-4" d="M232.91,156.91a4,4,0,0,1,5.08,2.38l5.28,14.53a4,4,0,1,1-7.46,2.71L230.54,162a4,4,0,0,1,2.37-5.08Z"/><path class="cls-6" d="M237.86,175.41l-5.28-14.54a4,4,0,0,1,.89-4.1,5.09,5.09,0,0,0-.56.14,4,4,0,0,0-2.38,5.08l5.28,14.54a4,4,0,0,0,5.08,2.38,3.92,3.92,0,0,0,1.48-1,4,4,0,0,1-4.51-2.52Z"/><path class="cls-5" d="M249.45,187.67h-1.32v-15.4h.35a4.2,4.2,0,0,1,4.17,3.66l.94,7a4.18,4.18,0,0,1-4.14,4.74Z"/><path class="cls-8" d="M126.6,172H93.16A16.28,16.28,0,0,1,76.9,155.71a3.18,3.18,0,0,1,6.35,0,9.92,9.92,0,0,0,9.91,9.91H126.6a3.18,3.18,0,0,1,0,6.35Z"/><path class="cls-9" d="M127.82,169.09H94.38a16.26,16.26,0,0,1-16.24-15.88,3.18,3.18,0,0,0-1.24,2.5A16.28,16.28,0,0,0,93.16,172H126.6a3.16,3.16,0,0,0,3.17-3.17c0-.13,0-.25,0-.37a3.16,3.16,0,0,1-1.92.66Z"/><path class="cls-8" d="M81,161.7a7.53,7.53,0,0,1-7.53-7.52V134.92a7.53,7.53,0,1,1,15,0v19.26A7.52,7.52,0,0,1,81,161.7Z"/><path class="cls-9" d="M81,127.39a7.45,7.45,0,0,0-2.91.59,7.52,7.52,0,0,1,4.62,6.94v19.25a7.52,7.52,0,0,1-4.62,6.94,7.51,7.51,0,0,0,10.43-6.94V134.92A7.53,7.53,0,0,0,81,127.39Z"/><path class="cls-11" d="M144.17,101.62h-51a4.82,4.82,0,0,0-4.82,4.82v51a4.81,4.81,0,0,0,4.82,4.81h51a4.81,4.81,0,0,0,4.82-4.81v-51a4.82,4.82,0,0,0-4.82-4.82Z"/><path class="cls-12" d="M144.17,101.62h-51a4.82,4.82,0,0,0-4.82,4.82V111a4.81,4.81,0,0,1,4.82-4.81h51A4.81,4.81,0,0,1,149,111v-4.51a4.82,4.82,0,0,0-4.82-4.82Z"/><path class="cls-13" d="M144.17,156h-51a4.82,4.82,0,0,1-4.82-4.82v6.22a4.82,4.82,0,0,0,4.82,4.82h51a4.82,4.82,0,0,0,4.82-4.82v-6.22a4.82,4.82,0,0,1-4.82,4.82Z"/><path class="cls-13" d="M120.73,129.46h-4.12a4.82,4.82,0,0,1-4.82-4.82v-23h13.76v23a4.82,4.82,0,0,1-4.82,4.82Z"/><rect class="cls-11" x="111.8" y="101.62" width="13.75" height="4.52"/><path class="cls-12" d="M142.1,150.74H130.55a1.6,1.6,0,0,1-1.6-1.6v-6.83a1.6,1.6,0,0,1,1.6-1.61H142.1a1.61,1.61,0,0,1,1.6,1.61v6.83a1.6,1.6,0,0,1-1.6,1.6Z"/><path class="cls-12" d="M105.5,150.74H94.06a1.66,1.66,0,1,1,0-3.31H105.5a1.66,1.66,0,1,1,0,3.31Z"/><path class="cls-12" d="M105.5,144.82H94.06a1.66,1.66,0,1,1,0-3.31H105.5a1.66,1.66,0,1,1,0,3.31Z"/><rect class="cls-3" x="115.65" y="101.62" width="6.04" height="70.35"/><rect class="cls-14" x="115.65" y="169.09" width="6.04" height="2.88"/><rect class="cls-10" x="115.65" y="165.62" width="6.04" height="3.47"/></g></g></svg>