<svg xmlns="http://www.w3.org/2000/svg" viewBox="0 0 358.2 358.2"><defs><style>.cls-1{fill:#009add;}.cls-2{fill:#ef5a9d;}.cls-3{fill:#dcfff8;}.cls-4{fill:none;}.cls-5{fill:#0f1414;}.cls-6{fill:#141e28;}.cls-7{fill:#00c8ff;}.cls-8{fill:#f7cb15;}.cls-9{fill:#fede3a;}.cls-10{fill:#fff;}.cls-11{fill:#e6e7e8;}.cls-12{fill:#4a5160;}</style></defs><title>Huuhed harah</title><g id="Layer_2" data-name="Layer 2"><g id="Layer_1-2" data-name="Layer 1"><rect class="cls-1" x="94.6" y="146.79" width="13.76" height="27.51"/><path class="cls-2" d="M114.86,155.85h-2.11c-3.67,0-3.67,5.51,0,5.51h2.11c3.67,0,3.67-5.51,0-5.51Z"/><path class="cls-3" d="M111.12,146.79V127.33a20.2,20.2,0,0,0-20.18-20.17H84.68a2.75,2.75,0,1,0,0,5.5h6.26a14.69,14.69,0,0,1,14.67,14.67v19.46"/><line class="cls-4" x1="79.72" y1="68.44" x2="79.72" y2="289.76"/><path class="cls-5" d="M358.2,179.1A179.1,179.1,0,1,1,179.1,0,179.09,179.09,0,0,1,358.2,179.1Z"/><path class="cls-6" d="M334.05,179.1a155,155,0,1,1-155-154.95,154.95,154.95,0,0,1,155,155Z"/><rect class="cls-5" x="97.6" y="151.79" width="183.88" height="27.51"/><path class="cls-5" d="M97.6,179.3V186a27.52,27.52,0,0,0,27.52,27.51H254A27.51,27.51,0,0,0,281.48,186V179.3Z"/><path class="cls-5" d="M261.26,99.25c14.57,19.12,20.22,35.16,20.22,52.54H180.21l81-52.54Z"/><path class="cls-5" d="M261.26,99.25h0l-81,52.54,22.92-78.35a78.05,78.05,0,0,1,55.4,23c.94.93,1.84,1.88,2.73,2.86Z"/><rect class="cls-5" x="97.6" y="151.79" width="13.76" height="27.51"/><path class="cls-5" d="M111.36,186V179.3H97.6V186a27.52,27.52,0,0,0,27.52,27.51h13.75A27.51,27.51,0,0,1,111.36,186Z"/><path class="cls-5" d="M203.13,73.44l-22.92,78.35,17-11,19.37-66.19a78.36,78.36,0,0,0-13.42-1.15Z"/><path class="cls-5" d="M117.86,160.85h-2.11c-3.67,0-3.67,5.51,0,5.51h2.11c3.67,0,3.67-5.51,0-5.51Z"/><path class="cls-5" d="M114.12,151.79V132.33a20.2,20.2,0,0,0-20.18-20.17H87.68a2.75,2.75,0,1,0,0,5.5h6.26a14.69,14.69,0,0,1,14.67,14.67v19.46"/><line class="cls-5" x1="82.72" y1="73.44" x2="82.72" y2="294.76"/><polygon class="cls-5" points="224.31 254.02 195.3 235.69 230.2 213.64 218.69 213.64 189.54 232.06 160.4 213.64 148.89 213.64 183.79 235.69 154.78 254.02 160.55 257.65 189.54 239.33 218.55 257.66 224.31 254.02"/><path class="cls-5" d="M159.31,255.54a17.36,17.36,0,1,1-8.2-2.06,17.37,17.37,0,0,1,8.2,2.06Z"/><path class="cls-5" d="M221.15,255.54a17.37,17.37,0,1,1-9.15,15.3,17.36,17.36,0,0,1,9.15-15.3Z"/><path class="cls-5" d="M147.5,270.84A17.35,17.35,0,0,1,158,254.91a17.36,17.36,0,1,0,0,31.88,17.38,17.38,0,0,1-10.48-16Z"/><path class="cls-5" d="M225.75,270.84a17.38,17.38,0,0,1,9.16-15.3c.43-.23.88-.44,1.33-.63a17.36,17.36,0,1,0,0,31.88,17.37,17.37,0,0,1-10.49-16Z"/><path class="cls-5" d="M151.11,264.75a6.09,6.09,0,1,1-4.31,1.78,6.09,6.09,0,0,1,4.31-1.78Z"/><path class="cls-5" d="M229.36,264.75a6.09,6.09,0,1,1-4.32,1.78,6.09,6.09,0,0,1,4.32-1.78Z"/><path class="cls-5" d="M151.11,262a8.85,8.85,0,1,0,8.85,8.84,8.85,8.85,0,0,0-8.85-8.84Zm0,12.2a3.35,3.35,0,1,1,3.35-3.36,3.36,3.36,0,0,1-3.35,3.36Z"/><path class="cls-5" d="M229.36,279.7a8.85,8.85,0,1,0-8.86-8.86,8.84,8.84,0,0,0,8.86,8.86Zm0-12.2a3.35,3.35,0,1,1-3.36,3.34,3.34,3.34,0,0,1,3.36-3.34Z"/><rect class="cls-7" x="94.6" y="146.79" width="183.88" height="27.51"/><path class="cls-7" d="M94.6,174.3V181a27.52,27.52,0,0,0,27.52,27.51H251A27.51,27.51,0,0,0,278.48,181V174.3Z"/><path class="cls-8" d="M258.26,94.25c14.57,19.12,20.22,35.16,20.22,52.54H177.21l81-52.54Z"/><path class="cls-9" d="M258.26,94.25h0l-81,52.54,22.92-78.35a78.05,78.05,0,0,1,55.4,23c.94.93,1.84,1.88,2.73,2.86Z"/><path class="cls-1" d="M108.36,181V146.79H94.6V181a27.52,27.52,0,0,0,27.52,27.51h13.75A27.51,27.51,0,0,1,108.36,181Z"/><path class="cls-10" d="M200.13,68.44l-22.92,78.35,17-11,19.37-66.19a78.36,78.36,0,0,0-13.42-1.15Z"/><polygon class="cls-3" points="221.31 249.02 192.3 230.69 227.2 208.64 215.69 208.64 186.54 227.06 157.4 208.64 145.89 208.64 180.79 230.69 151.78 249.02 157.55 252.65 186.54 234.33 215.55 252.66 221.31 249.02"/><path class="cls-11" d="M156.31,250.54a17.36,17.36,0,1,1-8.2-2.06,17.37,17.37,0,0,1,8.2,2.06Z"/><path class="cls-11" d="M218.15,250.54a17.37,17.37,0,1,1-9.15,15.3,17.36,17.36,0,0,1,9.15-15.3Z"/><path class="cls-10" d="M144.5,265.84A17.35,17.35,0,0,1,155,249.91a17.36,17.36,0,1,0,0,31.88,17.38,17.38,0,0,1-10.48-16Z"/><path class="cls-10" d="M222.75,265.84a17.38,17.38,0,0,1,9.16-15.3c.43-.23.88-.44,1.33-.63a17.36,17.36,0,1,0,0,31.88,17.37,17.37,0,0,1-10.49-16Z"/><path class="cls-12" d="M148.11,259.75a6.09,6.09,0,1,1-4.31,1.78,6.09,6.09,0,0,1,4.31-1.78Z"/><path class="cls-12" d="M226.36,259.75a6.09,6.09,0,1,1-4.32,1.78,6.09,6.09,0,0,1,4.32-1.78Z"/><path class="cls-2" d="M148.11,257a8.85,8.85,0,1,0,8.85,8.84,8.85,8.85,0,0,0-8.85-8.84Zm0,12.2a3.35,3.35,0,1,1,3.35-3.36,3.36,3.36,0,0,1-3.35,3.36Z"/><path class="cls-2" d="M226.36,274.7a8.85,8.85,0,1,0-8.86-8.86,8.84,8.84,0,0,0,8.86,8.86Zm0-12.2a3.35,3.35,0,1,1-3.36,3.34,3.34,3.34,0,0,1,3.36-3.34Z"/><path class="cls-10" d="M109.2,146.79V127.33A20.19,20.19,0,0,0,89,107.16H82.76a2.75,2.75,0,1,0,0,5.5H89a14.69,14.69,0,0,1,14.68,14.67v19.46"/></g></g></svg>