<svg xmlns="http://www.w3.org/2000/svg" viewBox="0 0 358.2 358.2"><defs><style>.cls-1{fill:#382b73;}.cls-2{fill:#0f1414;}.cls-3{fill:#141e28;}.cls-4{fill:#01062d;}.cls-5{fill:#e7ad27;}.cls-6{fill:#f7cb15;}.cls-7{fill:#fede3a;}.cls-8{fill:#ef5a9d;}.cls-9{fill:#00c8ff;}.cls-10{fill:#bcbec0;}.cls-11{fill:#fff;}</style></defs><title>Huuhed hurgelt</title><g id="Layer_2" data-name="Layer 2"><g id="Layer_1-2" data-name="Layer 1"><rect class="cls-1" x="78.78" y="136.42" width="27.82" height="34.77"/><path class="cls-2" d="M358.2,179.1A179.1,179.1,0,1,1,179.1,0,179.09,179.09,0,0,1,358.2,179.1Z"/><path class="cls-3" d="M334.05,179.1a155,155,0,1,1-155-154.95,154.95,154.95,0,0,1,155,155Z"/><path class="cls-1" d="M80,122.51A20.8,20.8,0,0,1,99.65,108.6H224.83a20.8,20.8,0,0,1,15.54,7,19.42,19.42,0,0,1,4.1,7Z"/><path class="cls-2" d="M80,122.51a20.18,20.18,0,0,0-1.22,7V230.31a7,7,0,0,0,7,6.95h7a24.35,24.35,0,0,1,48.69,0h69.54a24.34,24.34,0,0,1,48.68,0h13.91a13.9,13.9,0,0,0,13.91-13.91V216.4h-7a13.91,13.91,0,1,1,0-27.82h3.62a27.73,27.73,0,0,0-19.89-14.29l-18.5-3.1V129.47a20,20,0,0,0-1.22-7Z"/><path class="cls-1" d="M197,216.4a7,7,0,0,1-6.95,6.95H169.19a7,7,0,0,1-6.95-6.95v-73a7,7,0,0,1,6.95-7h20.87a7,7,0,0,1,6.95,7v73Z"/><rect class="cls-1" x="197.01" y="185.1" width="13.91" height="13.91"/><rect class="cls-1" x="78.78" y="185.1" width="83.45" height="13.91"/><rect class="cls-1" x="120.51" y="136.42" width="27.82" height="34.77"/><path class="cls-4" d="M210.92,150.33a13.9,13.9,0,0,1,13.91-13.91h20.86v34.77H210.92V150.33Z"/><path class="cls-2" d="M270.62,192.65a14,14,0,0,1,9.84-4.07h3.62a27.18,27.18,0,0,1,3.34,13.14V216.4h-7a13.92,13.92,0,0,1-9.84-23.75Z"/><path class="cls-2" d="M235.26,212.92a24.34,24.34,0,1,1-24.34,24.34,24.32,24.32,0,0,1,24.34-24.34Z"/><path class="cls-2" d="M117,212.92a24.34,24.34,0,1,1-24.34,24.34A24.33,24.33,0,0,1,117,212.92Z"/><path class="cls-1" d="M224.83,237.26a10.43,10.43,0,1,1,10.43,10.43,10.43,10.43,0,0,1-10.43-10.43Z"/><path class="cls-1" d="M106.6,237.26A10.44,10.44,0,1,1,117,247.69a10.43,10.43,0,0,1-10.43-10.43Z"/><path class="cls-5" d="M76,116.51A20.8,20.8,0,0,1,95.65,102.6H220.83a20.8,20.8,0,0,1,15.54,7,19.42,19.42,0,0,1,4.1,7Z"/><path class="cls-6" d="M76,116.51a20.18,20.18,0,0,0-1.22,7V224.31a7,7,0,0,0,7,6.95h7a24.35,24.35,0,0,1,48.69,0h69.54a24.34,24.34,0,0,1,48.68,0h13.91a13.9,13.9,0,0,0,13.91-13.91V210.4h-7a13.91,13.91,0,1,1,0-27.82h3.62a27.73,27.73,0,0,0-19.89-14.29l-18.5-3.1V123.47a20,20,0,0,0-1.22-7Z"/><path class="cls-7" d="M193,210.4a7,7,0,0,1-6.95,6.95H165.19a7,7,0,0,1-6.95-6.95v-73a7,7,0,0,1,6.95-7h20.87a7,7,0,0,1,6.95,7v73Z"/><rect class="cls-8" x="193.01" y="179.1" width="13.91" height="13.91"/><rect class="cls-8" x="74.78" y="179.1" width="83.45" height="13.91"/><rect class="cls-9" x="74.78" y="130.42" width="27.82" height="34.77"/><rect class="cls-9" x="116.51" y="130.42" width="27.82" height="34.77"/><path class="cls-9" d="M206.92,144.33a13.9,13.9,0,0,1,13.91-13.91h20.86v34.77H206.92V144.33Z"/><path class="cls-8" d="M266.62,186.65a14,14,0,0,1,9.84-4.07h3.62a27.18,27.18,0,0,1,3.34,13.14V210.4h-7a13.92,13.92,0,0,1-9.84-23.75Z"/><path class="cls-10" d="M231.26,206.92a24.34,24.34,0,1,1-24.34,24.34,24.32,24.32,0,0,1,24.34-24.34Z"/><path class="cls-10" d="M113,206.92a24.34,24.34,0,1,1-24.34,24.34A24.33,24.33,0,0,1,113,206.92Z"/><path class="cls-11" d="M220.83,231.26a10.43,10.43,0,1,1,10.43,10.43,10.43,10.43,0,0,1-10.43-10.43Z"/><path class="cls-11" d="M102.6,231.26A10.44,10.44,0,1,1,113,241.69a10.43,10.43,0,0,1-10.43-10.43Z"/></g></g></svg>