<svg xmlns="http://www.w3.org/2000/svg" viewBox="0 0 358.2 358.2"><defs><style>.cls-1{fill:#0f1414;}.cls-2{fill:#141e28;}.cls-3{fill:#d1d3d4;}.cls-4{fill:#fff;}.cls-5{fill:#fede3a;}.cls-6{fill:#f7cb15;}.cls-7{fill:#e6e7e8;}.cls-8{fill:#e7ad27;}.cls-9{fill:#1caee4;}.cls-10{fill:#00c8ff;}.cls-11{fill:#009add;}</style></defs><title>Map</title><g id="Layer_2" data-name="Layer 2"><g id="Layer_1-2" data-name="Layer 1"><path class="cls-1" d="M358.2,179.1A179.1,179.1,0,1,1,179.1,0,179.09,179.09,0,0,1,358.2,179.1Z"/><path class="cls-2" d="M334.05,179.1a155,155,0,1,1-155-154.95,154.95,154.95,0,0,1,155,155Z"/><path class="cls-1" d="M245.48,159.6V139.68a5.26,5.26,0,0,0-5.25-5.25V101.08a9,9,0,0,0-9-9H127a9,9,0,0,0-9,9v183a9,9,0,0,0,9,9H231.23a9,9,0,0,0,9-9V202.6a5.26,5.26,0,0,0,5.25-5.25V177.43a5.26,5.26,0,0,0-5.25-5.25v-7.33a5.26,5.26,0,0,0,5.25-5.25Z"/><path class="cls-3" d="M231.23,282.62H127a9,9,0,0,1-9-9v-177a9,9,0,0,1,9-9H231.23a9,9,0,0,1,9,9v177a9,9,0,0,1-9,9Z"/><path class="cls-4" d="M231.23,276.62H127a9,9,0,0,1-9-9v-177a9,9,0,0,1,9-9H231.23a9,9,0,0,1,9,9v177a9,9,0,0,1-9,9Z"/><path class="cls-5" d="M224.48,260.85H133.73a6,6,0,0,1-6-6V103.35a6,6,0,0,1,6-6h90.75a6,6,0,0,1,6,6v151.5a6,6,0,0,1-6,6Z"/><path class="cls-6" d="M230.48,186.56a57,57,0,0,0-102.75,0v49.36a57.31,57.31,0,0,0,23.36,24.93h56a57.39,57.39,0,0,0,23.37-24.93Zm-72-19.28a66,66,0,0,0-9.16,22.58H135.52a48.91,48.91,0,0,1,23-22.58Zm-27.95,44a48.39,48.39,0,0,1,1.76-12.93h15.58a103.9,103.9,0,0,0-.8,12.93,106.22,106.22,0,0,0,.66,11.87H132a48.37,48.37,0,0,1-1.47-11.87ZM135,231.56h14.09c1.94,9.33,5.2,17.44,9.39,23.64A48.91,48.91,0,0,1,135,231.56ZM174.88,259c-7.5-2.92-13.88-13.45-17.1-27.4h17.1Zm0-35.85H156.27a95.15,95.15,0,0,1-.74-11.87,93.31,93.31,0,0,1,.89-12.93h18.46Zm0-33.25H158c3.29-13.41,9.54-23.49,16.85-26.34Zm47.81,0H208.86a66,66,0,0,0-9.16-22.58,48.93,48.93,0,0,1,23,22.58Zm-39.37-26.34c7.32,2.85,13.56,12.93,16.85,26.34H183.32Zm0,34.79h18.46a93.29,93.29,0,0,1,.9,12.93,95.12,95.12,0,0,1-.75,11.87H183.32Zm0,60.65v-27.4h17.11c-3.23,13.95-9.61,24.48-17.11,27.4Zm16.38-3.76c4.19-6.2,7.45-14.31,9.39-23.64h14.09A48.83,48.83,0,0,1,199.7,255.2Zm10.75-32.09a105.17,105.17,0,0,0-.13-24.8h15.57a48.22,48.22,0,0,1,.29,24.8Z"/><path class="cls-6" d="M224.48,97.35H133.73a6,6,0,0,0-6,6v6a6,6,0,0,1,6-6h90.75a6,6,0,0,1,6,6v-6a6,6,0,0,0-6-6Z"/><path class="cls-6" d="M185.29,271.16H172.91a2.63,2.63,0,0,1,0-5.25h12.38a2.63,2.63,0,0,1,0,5.25Z"/><path class="cls-6" d="M210.9,89.6A3.6,3.6,0,1,1,207.3,86a3.6,3.6,0,0,1,3.6,3.59Z"/><path class="cls-3" d="M240.23,154.35V123.93a5.26,5.26,0,0,1,5.25,5.25V149.1a5.26,5.26,0,0,1-5.25,5.25Z"/><path class="cls-3" d="M240.23,192.1V161.68a5.26,5.26,0,0,1,5.25,5.25v19.92a5.26,5.26,0,0,1-5.25,5.25Z"/><path class="cls-7" d="M133.73,260.85a6,6,0,0,1-6-6V103.35a6,6,0,0,1,6-6h3V81.58H127a9,9,0,0,0-9,9v177a9,9,0,0,0,9,9h9.75V260.85Z"/><path class="cls-6" d="M136.73,97.35h-3a6,6,0,0,0-6,6v151.5a6,6,0,0,0,6,6h3Z"/><path class="cls-8" d="M136.73,234.86c-.61-1.08-1.19-2.17-1.71-3.3h1.71v-8.45H132a48.51,48.51,0,0,1,.29-24.8h4.42v-8.45h-1.21c.37-.75.8-1.47,1.21-2.21V173.17a57.16,57.16,0,0,0-9,13.39v49.36a56.92,56.92,0,0,0,9,13.35Z"/><path class="cls-7" d="M224.46,260.85a6,6,0,0,0,6-6V103.35a6,6,0,0,0-6-6h-3V81.58h9.75a9,9,0,0,1,9,9v177a9,9,0,0,1-9,9h-9.75V260.85Z"/><path class="cls-6" d="M221.46,97.35h3a6,6,0,0,1,6,6v151.5a6,6,0,0,1-6,6h-3Z"/><path class="cls-8" d="M221.46,249.29a57.42,57.42,0,0,0,9-13.33V186.52a57.35,57.35,0,0,0-9-13.37v14.47c.41.74.85,1.48,1.23,2.24h-1.23v8.45h4.43a48.22,48.22,0,0,1,.29,24.8h-4.72v8.45h1.72c-.52,1.14-1.11,2.24-1.72,3.34Z"/><path class="cls-6" d="M179.1,115.35a28.52,28.52,0,0,0-28.51,28.51c0,13.2,20,50.75,26.52,62.56a2.27,2.27,0,0,0,4,0c6.49-11.81,26.52-49.36,26.52-62.56a28.53,28.53,0,0,0-28.52-28.51Zm17.78,29.24c0,.2-.06.39-.08.58-.05.38-.1.77-.18,1.15,0,.22-.1.44-.16.66s-.16.67-.25,1-.16.46-.24.68-.21.62-.33.92l-.3.68c-.13.26-.25.53-.39.79s-.31.56-.47.83-.16.28-.25.42-.27.42-.41.63l-.17.24-.13.18c-.16.21-.31.42-.47.62l-.24.28c-.12.15-.24.29-.37.43l-.39.44-.59.59c-.17.17-.35.33-.53.49l-.2.17-.44.37a2.23,2.23,0,0,0-.24.19c-.19.14-.37.28-.57.41s-.26.19-.39.28l-.31.21c-.23.15-.47.29-.71.43l-.63.36q-.44.23-.87.42c-.18.08-.35.17-.53.24l-.29.12-.8.29-.45.16-.24.08c-.34.1-.7.18-1,.27l-.49.12-.25,0c-.42.08-.86.15-1.29.2l-.45.05c-.53,0-1.08.08-1.62.08s-1.09,0-1.63-.08l-.44-.05c-.44-.05-.88-.12-1.31-.2l-.24,0-.49-.12c-.36-.09-.71-.17-1.05-.27l-.24-.08-.46-.16-.8-.29-.29-.12-.52-.24q-.44-.19-.87-.42c-.22-.11-.42-.24-.64-.36l-.7-.43-.31-.21-.4-.28-.56-.41c-.08-.07-.16-.12-.23-.19s-.3-.24-.45-.37l-.2-.17c-.18-.16-.36-.32-.53-.49l-.59-.59-.39-.44c-.13-.14-.25-.28-.37-.43l-.24-.28c-.16-.2-.32-.41-.46-.62l-.14-.18-.17-.24c-.14-.21-.28-.42-.41-.63s-.17-.28-.25-.42-.33-.55-.48-.83-.25-.53-.38-.8-.21-.44-.3-.67-.23-.61-.33-.92-.17-.45-.24-.68-.18-.66-.25-1-.12-.44-.16-.67-.13-.76-.18-1.14c0-.2-.06-.38-.08-.58a17.19,17.19,0,0,1-.09-1.77,17.76,17.76,0,0,1,2.35-8.84,18.36,18.36,0,0,1,1.13-1.73c.08-.12.17-.23.26-.34s.39-.5.59-.74l.25-.27c.36-.4.73-.78,1.13-1.15l.44-.41.62-.51.73-.55c.26-.18.51-.36.78-.53s.5-.31.77-.46.36-.21.54-.31c.4-.2.81-.41,1.22-.59l.36-.14c.38-.14.75-.29,1.14-.41l.46-.14a14.4,14.4,0,0,1,1.47-.38l.14,0c.47-.09.95-.16,1.45-.22l.41,0c.54,0,1.08-.08,1.63-.08s1.08,0,1.62.08l.41,0c.49.05,1,.13,1.45.22l.14,0a14.4,14.4,0,0,1,1.47.38l.46.14c.39.12.77.27,1.14.41l.36.14c.41.18.82.39,1.21.59l.56.31.76.46.78.53.73.55.62.51.45.41c.39.37.77.75,1.12,1.15l.25.27c.2.24.4.49.59.74l.26.34a18.36,18.36,0,0,1,1.13,1.73,17.76,17.76,0,0,1,2.35,8.84,17.19,17.19,0,0,1-.09,1.77Z"/><path class="cls-9" d="M179.1,109.35a28.51,28.51,0,0,0-28.51,28.51c0,13.2,20,50.75,26.52,62.56a2.27,2.27,0,0,0,4,0c6.49-11.81,26.52-49.36,26.52-62.56a28.53,28.53,0,0,0-28.52-28.51Zm0,45.34A17.87,17.87,0,1,1,197,136.82a17.87,17.87,0,0,1-17.87,17.87Z"/><path class="cls-9" d="M179.1,119a17.86,17.86,0,0,1,15.52,9c-2.33-10.87-8.4-18.63-15.52-18.63s-13.18,7.76-15.51,18.63a17.83,17.83,0,0,1,15.51-9Z"/><path class="cls-10" d="M179.1,154.69a17.86,17.86,0,0,1-15.85-9.64c2.54,16.43,11.48,45.28,14.69,55.37.51,1.58,1.82,1.58,2.32,0,3.21-10.09,12.15-38.94,14.69-55.37a17.85,17.85,0,0,1-15.85,9.64Z"/><path class="cls-11" d="M180.93,154.6a19.63,19.63,0,1,0-3.66,0,17.87,17.87,0,1,1,3.66,0Z"/></g></g></svg>