<svg xmlns="http://www.w3.org/2000/svg" xmlns:xlink="http://www.w3.org/1999/xlink" viewBox="0 0 23.05 64.28"><defs><style>.cls-1{fill:url(#linear-gradient);}.cls-2{fill:#353535;}.cls-3{fill:#d82339;}.cls-4{mask:url(#mask);}.cls-5{fill:#fff;}</style><linearGradient id="linear-gradient" x1="-374.06" y1="-101.55" x2="-362.48" y2="-113.14" gradientTransform="matrix(0.83, -0.01, -0.01, 0.88, 313.96, 99.59)" gradientUnits="userSpaceOnUse"><stop offset="0.1"/><stop offset="0.4" stop-color="#666"/><stop offset="0.6" stop-color="#666"/><stop offset="0.9"/></linearGradient><mask id="mask" x="0.66" y="0.35" width="13.75" height="14.28" maskUnits="userSpaceOnUse"><path class="cls-1" d="M14.41,7.44a7.13,7.13,0,0,1-6.92,7.19A6.89,6.89,0,0,1,.66,7.54,7.12,7.12,0,0,1,7.58.35,6.91,6.91,0,0,1,14.41,7.44Z"/></mask></defs><title>mark</title><g id="Layer_2" data-name="Layer 2"><g id="Layer_1-2" data-name="Layer 1"><path class="cls-2" d="M12.76,63.42l-.15.21a1.46,1.46,0,0,1-2.54-.21h0V20.82h2.69Z"/><path class="cls-3" d="M22.88,9.52A11.53,11.53,0,1,1,13.44.15,11.54,11.54,0,0,1,22.88,9.52Z"/><g class="cls-4"><path class="cls-5" d="M10.93,2.51c-9.74-.27-8.18,8.41-8.18,8.41A9.74,9.74,0,0,1,5.47,5.3C6.67,4.08,8.83,3.33,10.93,2.51Z"/></g></g></g></svg>