<svg xmlns="http://www.w3.org/2000/svg" xmlns:xlink="http://www.w3.org/1999/xlink" viewBox="0 0 494.27 639.38"><defs><style>.cls-1{fill:none;}.cls-2{fill:#24c3ec;}.cls-3{fill:#fff;}.cls-4{clip-path:url(#clip-path);}</style><clipPath id="clip-path"><circle class="cls-1" cx="222.24" cy="224.38" r="179.5"/></clipPath></defs><title>Asset 2</title><g id="Layer_2" data-name="Layer 2"><g id="Layer_1-2" data-name="Layer 1"><path class="cls-2" d="M222.24,0C99.7,0,0,99.7,0,222.24c0,154,222.46,417.14,222.46,417.14s222-270.69,222-417.14C444.49,99.7,344.79,0,222.24,0Z"/><circle class="cls-3" cx="222.24" cy="224.38" r="179.5"/><circle class="cls-1" cx="222.24" cy="224.38" r="179.5"/><g class="cls-4"><path class="cls-2" d="M141.1,195.38l-.22,0a46.18,46.18,0,0,0-23.68,9.38,46.45,46.45,0,0,0,29.6,26.62,46.32,46.32,0,0,1-7.06-20.54,47.72,47.72,0,0,1-.12-7.26,47.5,47.5,0,0,1,6-1A46.39,46.39,0,0,1,187,220.75,46.43,46.43,0,0,0,141.1,195.38Z"/><path class="cls-2" d="M185.72,256.66v0a19.73,19.73,0,0,1-33.22-14.76c0-.31.05-.61.06-.91a30.2,30.2,0,0,0,1.29,32.28l3.73-.09c18.15,0,31.53-10.55,37.93-25.87A86.77,86.77,0,0,1,185.72,256.66Z"/><path class="cls-2" d="M197,126.18a6.8,6.8,0,0,0-2.88,1.48l-.42.36c.06.06.1.54,1.13.79a3,3,0,0,0,1.94-.28,3.46,3.46,0,0,1-2.55,3.17c-2.29.5-3.75-1.63-3.91-1.87L188.16,131a5.42,5.42,0,0,0,1.85,1.86c1.27.76,4.64,2.76,7.69-.35A5.59,5.59,0,0,0,199,126S198.7,125.83,197,126.18Z"/><path class="cls-2" d="M274.22,397.31l12-1.81a47.66,47.66,0,0,0-7.9-10C277.44,389,275.49,394.06,274.22,397.31Z"/><path class="cls-2" d="M237.59,284.85c-1.15,0-2.3,0-3.44.08a88.83,88.83,0,0,1,21.18,15.69,47.57,47.57,0,0,1,31,27.47,47.58,47.58,0,0,0-24.89-20.67A88,88,0,0,1,279.91,348a83.72,83.72,0,0,1,26.73,28.82,83.66,83.66,0,0,0-26-23.13,87.26,87.26,0,0,1-1.84,29.67,47.54,47.54,0,0,1,7.42,12.12H490.6a204.11,204.11,0,0,0-36.29-159.84,87.92,87.92,0,0,1-14.7,68.76,87.71,87.71,0,0,0,2.33-83.87,204.65,204.65,0,0,0-31-28,198.53,198.53,0,0,1-36.06,163.13,198.43,198.43,0,0,0,22-172.62,202.54,202.54,0,0,0-55.34-23.5,111,111,0,0,1-1.19,109.81,111.07,111.07,0,0,0-11.68-112.69l-.21,0,.47-.13c17.55-5.1,16.25-30.45-1.65-34.14a75.83,75.83,0,0,0-42.56,3.48h-.25a17.94,17.94,0,0,1-5.11.75,17.19,17.19,0,0,1-2-.13,62.84,62.84,0,0,1,10.73,26.06A81.37,81.37,0,0,0,269.4,123.8l0,0a53.62,53.62,0,0,1,7.2,21.44A69.11,69.11,0,0,0,263,121.07c-3.75-1.57-7.53-3.09-11.35-4.51q-11.25-4.2-22.86-7.59l.25.22a14.68,14.68,0,0,1,4.41,9.92,19,19,0,0,0-5.2-9.11,19.46,19.46,0,0,0-2-1.73c-6.71-1.9-13.49-3.62-20.36-5.1l-.36-.08a30.65,30.65,0,0,0-6-.6,30.07,30.07,0,0,0-21.9,9.45c-8.84,8.1-29.08,21.3-48.74,28.45-7,2.55-12.83,4.44-17.53,6.31l-1.29.51a22.46,22.46,0,0,0-.3,40.93h0s1.67,13.84,3.6,16.34c.56-.45,1.14-.88,1.72-1.31a63.93,63.93,0,0,1,98.22,29.61l-.07,0a65.23,65.23,0,0,0-39.82-33.22A65.3,65.3,0,0,1,200.19,230c.11.23.2.46.3.69l.3.71a2.07,2.07,0,0,1,.1.33,18.3,18.3,0,0,1,1,5.9,17.74,17.74,0,0,1-.45,4s0,0,0,.07v0a17.32,17.32,0,0,1-1.21,3.51,55.35,55.35,0,0,1-2.65,5.8,47.71,47.71,0,0,1-42.11,25.26,48.42,48.42,0,0,1-8.22-.72c-.66-.12-1.32-.24-2-.38,0,.16.08.33.13.51h-.14s1.13,9.55,12.58,18.9c.55.45,1.11.91,1.72,1.36,7.76,5.79,17.78,10.21,26.51,13.33a178.69,178.69,0,0,0,17.85,5.34,19,19,0,0,1-7.45-13.16,18.49,18.49,0,0,1-.12-2A18.92,18.92,0,0,1,204.39,284c.47-.33,1-.65,1.45-.94l0,0,.16-.09.38-.21c1.89-1,3.73-2.1,5.53-3.24a91.8,91.8,0,0,0,15.21-12c1.52-1.48,3-3,4.41-4.62.38-.41.74-.83,1.1-1.26a90.86,90.86,0,0,0,13.8-21.67v0h0a37.1,37.1,0,0,1,.34,4.87,49.5,49.5,0,0,0,45.72-42.2c0-.13,0-.26.06-.39.06.26.11.53.17.79a44.07,44.07,0,0,1-43.11,53.5,41.56,41.56,0,0,1-4.63-.28A36.8,36.8,0,0,1,227,277.48a37.36,37.36,0,0,1-4.45,1.93,79.36,79.36,0,0,1,77.86,36.29A79.17,79.17,0,0,0,237.59,284.85ZM123.5,172.31a29.72,29.72,0,0,1-4.36.34,28.59,28.59,0,0,1-11.45-2.4,9.49,9.49,0,0,0-1.3,10.37,16.28,16.28,0,0,1-3.59-10.21,16.93,16.93,0,0,1,.23-2.69,16.35,16.35,0,0,1,2.65-6.56,27.33,27.33,0,0,0,7.42,5.92,26.63,26.63,0,0,0,3.6,1.64A26.91,26.91,0,0,0,122,170.1a27.53,27.53,0,0,0,4.09.31,26.64,26.64,0,0,0,5.47-.59A28.62,28.62,0,0,1,123.5,172.31Zm39.95-39.86a14.85,14.85,0,0,1-6.57-1.09s2.32.94,7.85-1,7.41-1.14,7.41-1.14C168.35,129.52,167,132.16,163.45,132.45Zm34.89,31.9a46.18,46.18,0,0,0-23.19-10.49,35.65,35.65,0,0,1,37.34,31.64A46.16,46.16,0,0,0,198.34,164.35Zm19.43-32a18.24,18.24,0,0,0-7.23-5.93c-4-1.9-6.61-.8-6.61-.8s-.06,6.71-4.51,9.65-7.94.24-12.81-1.68c-2.88-1.13-5.62-1.64-9.07.08a5.37,5.37,0,0,0-2.24,2.11s.3-3.34,2.38-4.38a9,9,0,0,1,2.82-.65s-2.91-2.83-2.16-5.82,5.91-5,5.91-5-5.6,5-1.11,6.49,13.18-7.38,21-5.25c7,1.9,12.53,9.6,13.59,11.17l.2.3S217.9,132.48,217.77,132.3Zm9.34,24.59a31.77,31.77,0,0,0,28.2-18.15,24.42,24.42,0,0,1-28.2,18.15Zm16.2,7.85a19.09,19.09,0,0,0,17-10.93,14.69,14.69,0,0,1-17,10.93Zm13.74,7.38a9.67,9.67,0,0,1-7.06,1.39,12.65,12.65,0,0,0,11.25-7.24A9.71,9.71,0,0,1,257.05,172.12Zm16.76,19.77a34.29,34.29,0,0,1-12.38,22.19,44.71,44.71,0,0,0,6.15-46.82A34.31,34.31,0,0,1,273.81,191.89Zm43.1-56.21c10.68-.32,14.16-1.48,16.41.51s1.89,4.82.21,8.29-3,4-3,4,1.86-4.57.47-7-3.59-1.16-8.91-1.17-6.32.58-6.32.58a23,23,0,0,1,5.53,4.52c2.6,2.91,3.39,4.39,3.93,7.53,0,0-1.13-5.48-10.18-9.25-5.7-2.37-10.23-10.7-10.23-10.7S306.24,136,316.91,135.68Zm-2.15,41.11a30.37,30.37,0,0,1-5.2,21.88,39.55,39.55,0,0,0-6-41.36A30.37,30.37,0,0,1,314.76,176.79Z"/></g></g></g></svg>