<svg xmlns="http://www.w3.org/2000/svg" viewBox="0 0 358.2 358.2"><defs><style>.cls-1{fill:#0f1414;}.cls-2{fill:#141e28;}.cls-3{fill:#d1d3d4;}.cls-4{fill:#fff;}.cls-5{fill:#fede3a;}.cls-6{fill:#f7cb15;}.cls-7{fill:#e6e7e8;}.cls-8{fill:#00c8ff;}</style></defs><title>QR</title><g id="Layer_2" data-name="Layer 2"><g id="Layer_1-2" data-name="Layer 1"><path class="cls-1" d="M358.2,179.1A179.1,179.1,0,1,1,179.1,0,179.09,179.09,0,0,1,358.2,179.1Z"/><path class="cls-2" d="M334.05,179.1a155,155,0,1,1-155-154.95,154.95,154.95,0,0,1,155,155Z"/><path class="cls-1" d="M245.48,159.6V139.68a5.26,5.26,0,0,0-5.25-5.25V101.08a9,9,0,0,0-9-9H127a9,9,0,0,0-9,9v183a9,9,0,0,0,9,9H231.23a9,9,0,0,0,9-9V202.6a5.26,5.26,0,0,0,5.25-5.25V177.43a5.26,5.26,0,0,0-5.25-5.25v-7.33a5.26,5.26,0,0,0,5.25-5.25Z"/><path class="cls-3" d="M231.23,282.62H127a9,9,0,0,1-9-9v-177a9,9,0,0,1,9-9H231.23a9,9,0,0,1,9,9v177a9,9,0,0,1-9,9Z"/><path class="cls-4" d="M231.23,276.62H127a9,9,0,0,1-9-9v-177a9,9,0,0,1,9-9H231.23a9,9,0,0,1,9,9v177a9,9,0,0,1-9,9Z"/><path class="cls-5" d="M224.48,260.85H133.73a6,6,0,0,1-6-6V103.35a6,6,0,0,1,6-6h90.75a6,6,0,0,1,6,6v151.5a6,6,0,0,1-6,6Z"/><path class="cls-6" d="M224.48,97.35H133.73a6,6,0,0,0-6,6v6a6,6,0,0,1,6-6h90.75a6,6,0,0,1,6,6v-6a6,6,0,0,0-6-6Z"/><path class="cls-6" d="M185.29,271.16H172.91a2.63,2.63,0,0,1,0-5.25h12.38a2.63,2.63,0,0,1,0,5.25Z"/><path class="cls-6" d="M210.9,89.6A3.6,3.6,0,1,1,207.3,86a3.6,3.6,0,0,1,3.6,3.59Z"/><path class="cls-3" d="M240.23,154.35V123.93a5.26,5.26,0,0,1,5.25,5.25V149.1a5.26,5.26,0,0,1-5.25,5.25Z"/><path class="cls-3" d="M240.23,192.1V161.68a5.26,5.26,0,0,1,5.25,5.25v19.92a5.26,5.26,0,0,1-5.25,5.25Z"/><path class="cls-7" d="M133.73,260.85a6,6,0,0,1-6-6V103.35a6,6,0,0,1,6-6h3V81.58H127a9,9,0,0,0-9,9v177a9,9,0,0,0,9,9h9.75V260.85Z"/><path class="cls-6" d="M136.73,97.35h-3a6,6,0,0,0-6,6v151.5a6,6,0,0,0,6,6h3Z"/><path class="cls-7" d="M224.46,260.85a6,6,0,0,0,6-6V103.35a6,6,0,0,0-6-6h-3V81.58h9.75a9,9,0,0,1,9,9v177a9,9,0,0,1-9,9h-9.75V260.85Z"/><path class="cls-6" d="M221.46,97.35h3a6,6,0,0,1,6,6v151.5a6,6,0,0,1-6,6h-3Z"/><path class="cls-6" d="M152.65,168.92H164.6a6,6,0,0,0,6-6V151a6,6,0,0,0-6-6H152.65a6,6,0,0,0-6,6h0v12A6,6,0,0,0,152.65,168.92Zm0-17.93H164.6v12H152.65Z"/><path class="cls-6" d="M164.6,186.86H152.65a6,6,0,0,0-6,6h0v12a6,6,0,0,0,6,6H164.6a6,6,0,0,0,6-6v-12a6,6,0,0,0-6-6Zm0,17.93H152.65v-12H164.6Z"/><path class="cls-6" d="M206.44,186.86H194.49a6,6,0,0,0-6,6h0v12a6,6,0,0,0,6,6h11.95a6,6,0,0,0,6-6v-12a6,6,0,0,0-6-6Zm0,17.93H194.49v-12h11.95Z"/><circle class="cls-6" cx="207.94" cy="149.5" r="4.48"/><circle class="cls-6" cx="207.94" cy="164.44" r="4.48"/><circle class="cls-6" cx="192.99" cy="149.5" r="4.48"/><path class="cls-6" d="M179.55,168.92a3,3,0,0,0,3-3v-3a3,3,0,0,1,3-3h0a3,3,0,0,0,0-6,3,3,0,0,1-3-3v-3a3,3,0,1,0-6,0h0v17.94a3,3,0,0,0,3,3Z"/><path class="cls-6" d="M179.55,174.9a3,3,0,0,1-3-3,3,3,0,0,0-6,0,3,3,0,0,1-3,3H149.66a3,3,0,1,0,0,6h17.93a3,3,0,0,1,3,3h0a3,3,0,0,0,3,3,3,3,0,0,1,3,3h0v6a3,3,0,1,0,6,0V177.89a3,3,0,0,0-3-3Z"/><path class="cls-6" d="M209.43,174.9h-9a3,3,0,0,1-3-3v-7.47a4.49,4.49,0,0,0-9,0v1.5a3,3,0,0,1-3,3,3,3,0,0,0,0,6h0a3,3,0,0,1,3,3h0a3,3,0,0,0,3,3h17.93a3,3,0,1,0,0-6Z"/><circle class="cls-6" cx="179.55" cy="207.78" r="2.99"/><path class="cls-6" d="M212.42,137.89H146.67a1,1,0,1,1,0-2h65.75a1,1,0,0,1,0,2Z"/><path class="cls-6" d="M212.42,218.83H146.67a1,1,0,0,1,0-2h65.75a1,1,0,0,1,0,2Z"/><path class="cls-8" d="M151.65,167.92H163.6a6,6,0,0,0,6-6V150a6,6,0,0,0-6-6H151.65a6,6,0,0,0-6,6h0v12A6,6,0,0,0,151.65,167.92Zm0-17.93H163.6v12H151.65Z"/><path class="cls-8" d="M163.6,185.86H151.65a6,6,0,0,0-6,6h0v12a6,6,0,0,0,6,6H163.6a6,6,0,0,0,6-6v-12a6,6,0,0,0-6-6Zm0,17.93H151.65v-12H163.6Z"/><path class="cls-8" d="M205.44,185.86H193.49a6,6,0,0,0-6,6h0v12a6,6,0,0,0,6,6h11.95a6,6,0,0,0,6-6v-12a6,6,0,0,0-6-6Zm0,17.93H193.49v-12h11.95Z"/><circle class="cls-8" cx="206.94" cy="148.5" r="4.48"/><circle class="cls-8" cx="206.94" cy="163.44" r="4.48"/><circle class="cls-8" cx="191.99" cy="148.5" r="4.48"/><path class="cls-8" d="M178.55,167.92a3,3,0,0,0,3-3v-3a3,3,0,0,1,3-3h0a3,3,0,0,0,0-6,3,3,0,0,1-3-3v-3a3,3,0,1,0-6,0h0v17.94a3,3,0,0,0,3,3Z"/><path class="cls-8" d="M178.55,173.9a3,3,0,0,1-3-3,3,3,0,0,0-6,0,3,3,0,0,1-3,3H148.66a3,3,0,1,0,0,6h17.93a3,3,0,0,1,3,3h0a3,3,0,0,0,3,3,3,3,0,0,1,3,3h0v6a3,3,0,1,0,6,0V176.89a3,3,0,0,0-3-3Z"/><path class="cls-8" d="M208.43,173.9h-9a3,3,0,0,1-3-3v-7.47a4.49,4.49,0,0,0-9,0v1.5a3,3,0,0,1-3,3,3,3,0,0,0,0,6h0a3,3,0,0,1,3,3h0a3,3,0,0,0,3,3h17.93a3,3,0,1,0,0-6Z"/><circle class="cls-8" cx="178.55" cy="206.78" r="2.99"/><path class="cls-8" d="M211.42,136.89H145.67a1,1,0,1,1,0-2h65.75a1,1,0,0,1,0,2Z"/><path class="cls-8" d="M211.42,217.83H145.67a1,1,0,0,1,0-2h65.75a1,1,0,0,1,0,2Z"/></g></g></svg>