<svg xmlns="http://www.w3.org/2000/svg" xmlns:xlink="http://www.w3.org/1999/xlink" viewBox="0 0 384 383.43"><defs><style>.cls-1{fill:none;}.cls-2{clip-path:url(#clip-path);}.cls-3{fill:#fede3a;}</style><clipPath id="clip-path" transform="translate(0 -0.3)"><rect class="cls-1" width="384" height="384"/></clipPath></defs><title>star</title><g id="Layer_2" data-name="Layer 2"><g id="Layer_1-2" data-name="Layer 1"><g class="cls-2"><path class="cls-3" d="M373.81,137.34l-118-18L202.85,6.61c-3.95-8.42-17.76-8.42-21.71,0l-52.9,112.7-118,18a12,12,0,0,0-6.76,20.25l85.76,87.9L68.91,369.76a12,12,0,0,0,17.65,12.43L192,323.92l105.44,58.29a12,12,0,0,0,17.65-12.43L294.82,245.5l85.76-87.9a12,12,0,0,0-6.77-20.26Z" transform="translate(0 -0.3)"/></g></g></g></svg>