<svg xmlns="http://www.w3.org/2000/svg" viewBox="0 0 358.2 358.2"><defs><style>.cls-1{fill:#0f1414;}.cls-2{fill:#141e28;}.cls-3{fill:#00c8ff;}.cls-4{fill:#f7cb15;}.cls-5{fill:#ef5a9d;}.cls-6{fill:#e6e7e8;}</style></defs><title>taxi</title><g id="Layer_2" data-name="Layer 2"><g id="Layer_1-2" data-name="Layer 1"><path class="cls-1" d="M358.2,179.1A179.1,179.1,0,1,1,179.1,0,179.09,179.09,0,0,1,358.2,179.1Z"/><path class="cls-2" d="M334.05,179.1a155,155,0,1,1-155-154.95,154.95,154.95,0,0,1,155,155Z"/><path class="cls-1" d="M276.87,244.26H90.23a20,20,0,1,1,0-40H276.87a20,20,0,1,1,0,40Z"/><path class="cls-1" d="M250.88,130.94H116.22a14.54,14.54,0,0,0-14,10.76L84.7,206.49H282.4L264.92,141.7a14.54,14.54,0,0,0-14-10.76Z"/><path class="cls-1" d="M152.44,157.61H134.67a4.45,4.45,0,1,1,0-8.89h17.77a4.45,4.45,0,1,1,0,8.89Z"/><path class="cls-1" d="M143.56,188.71a4.44,4.44,0,0,1-4.45-4.44V153.16a4.45,4.45,0,0,1,8.89,0v31.11a4.44,4.44,0,0,1-4.44,4.44Z"/><path class="cls-1" d="M232.43,188.71a4.44,4.44,0,0,1-4.44-4.44V153.16a4.44,4.44,0,0,1,8.88,0v31.11a4.44,4.44,0,0,1-4.44,4.44Z"/><path class="cls-1" d="M183.54,188.71a4.45,4.45,0,0,1-4.26-3.22l-4.62-16.15-4.61,16.15a4.45,4.45,0,0,1-8.55-2.44l8.89-31.11a4.45,4.45,0,0,1,8.55,0l8.89,31.11a4.45,4.45,0,0,1-3.06,5.49,4.35,4.35,0,0,1-1.23.17Z"/><path class="cls-1" d="M198,188.71a4.38,4.38,0,0,1-1.95-.45,4.45,4.45,0,0,1-2-5.94l15.19-31.11a4.44,4.44,0,1,1,8,3.9L202,186.22a4.45,4.45,0,0,1-4,2.49Z"/><path class="cls-1" d="M213.53,188.71a4.43,4.43,0,0,1-4-2.49l-15.18-31.11a4.44,4.44,0,0,1,8-3.9l15.19,31.11a4.46,4.46,0,0,1-2.05,5.94,4.34,4.34,0,0,1-1.94.45Z"/><rect class="cls-1" x="222" y="217.6" width="13.33" height="13.33"/><rect class="cls-1" x="244.22" y="217.6" width="13.33" height="13.33"/><rect class="cls-1" x="266.44" y="217.6" width="13.33" height="13.33"/><path class="cls-3" d="M272.42,235.76H85.78a20,20,0,0,1,0-40H272.42a20,20,0,1,1,0,40Z"/><path class="cls-4" d="M246.44,122.44H111.77a14.55,14.55,0,0,0-14,10.76L80.25,198H278L260.47,133.2a14.53,14.53,0,0,0-14-10.76Z"/><path class="cls-5" d="M148,149.11H130.22a4.45,4.45,0,0,1,0-8.89H148a4.45,4.45,0,1,1,0,8.89Z"/><path class="cls-5" d="M139.11,180.21a4.44,4.44,0,0,1-4.45-4.44V144.66a4.45,4.45,0,0,1,8.89,0v31.11a4.44,4.44,0,0,1-4.44,4.44Z"/><path class="cls-5" d="M228,180.21a4.44,4.44,0,0,1-4.44-4.44V144.66a4.45,4.45,0,0,1,8.89,0v31.11a4.44,4.44,0,0,1-4.45,4.44Z"/><path class="cls-5" d="M179.1,180.21a4.45,4.45,0,0,1-4.27-3.22l-4.62-16.15L165.6,177a4.44,4.44,0,1,1-8.54-2.44l8.88-31.11a4.45,4.45,0,0,1,8.55,0l8.89,31.11a4.45,4.45,0,0,1-3.06,5.49,4.33,4.33,0,0,1-1.22.17Z"/><path class="cls-5" d="M193.56,180.21a4.34,4.34,0,0,1-1.94-.45,4.44,4.44,0,0,1-2.05-5.94l15.19-31.11a4.44,4.44,0,1,1,8,3.9l-15.18,31.11a4.45,4.45,0,0,1-4,2.49Z"/><path class="cls-5" d="M209.08,180.21a4.45,4.45,0,0,1-4-2.49L189.9,146.61a4.44,4.44,0,1,1,8-3.9l15.19,31.11a4.45,4.45,0,0,1-2,5.94,4.34,4.34,0,0,1-1.94.45Z"/><rect class="cls-6" x="217.55" y="209.1" width="13.33" height="13.33"/><rect class="cls-6" x="239.77" y="209.1" width="13.33" height="13.33"/><rect class="cls-6" x="261.99" y="209.1" width="13.33" height="13.33"/></g></g></svg>