<svg xmlns="http://www.w3.org/2000/svg" viewBox="0 0 358.2 358.2"><defs><style>.cls-1{fill:#0f1414;}.cls-2{fill:#141e28;}.cls-3{fill:#e6e9ed;}.cls-4{fill:#00c8ff;}.cls-5{fill:#ffbb83;}.cls-6{fill:#dd9158;}.cls-7{fill:#fede3a;}.cls-8{fill:#f7cb15;}.cls-9{fill:#e7ad27;}</style></defs><title>tsagiin ajil</title><g id="Layer_2" data-name="Layer 2"><g id="Layer_1-2" data-name="Layer 1"><path class="cls-1" d="M358.2,179.1A179.1,179.1,0,1,1,179.1,0,179.09,179.09,0,0,1,358.2,179.1Z"/><path class="cls-2" d="M334.05,179.1a155,155,0,1,1-155-154.95,154.95,154.95,0,0,1,155,155Z"/><path class="cls-1" d="M127.51,195h-9.2v67.26h9.2a3,3,0,0,0,3.07-3V198A3.07,3.07,0,0,0,127.51,195Z"/><path class="cls-1" d="M118.31,259.16v6.31a3.07,3.07,0,0,1-3.06,3.06H77.69a3.07,3.07,0,0,1-3.06-3.06V191.89a3.07,3.07,0,0,1,3.06-3.07h37.56a3.07,3.07,0,0,1,3.06,3.07h0v67.27Z"/><path class="cls-1" d="M221.93,222.64l6.75-3.07c15.33-6.13,36.78-16.73,36.78-16.73a12.25,12.25,0,0,1,16.75,4.47c3.37,5.89,0,12.26-4.48,16.74,0,0-55.18,44.57-73.58,44.57s-73.57-12.26-73.57-12.26V201.18c30.65-5.09,41.14,3.06,85.83,17.35a10.33,10.33,0,0,1,5.15,4.3Z"/><path class="cls-1" d="M282.21,207.31a12.2,12.2,0,0,0-5.08-4.8,19.7,19.7,0,0,1-5.53,9.28s-49.05,43.44-67.45,43.44c-14.66,0-58.74-6.64-73.57-9.8v10.93s55.18,12.26,73.57,12.26,73.58-44.57,73.58-44.57C282.21,219.57,285.58,213.2,282.21,207.31Z"/><path class="cls-1" d="M212.12,241.26c5,0,10-2.76,13.36-7.46,3.21-4.52,3.86-9.67,1.79-13.58l-5.34,2.42-.24.12.17.23c1,1.79.48,4.64-1.38,7.26-2,2.89-5.83,5.48-9.65,4.77-6-1.1-41.54-6-43.05-6.16a3.07,3.07,0,0,0-.83,6.08c.37,0,36.91,5,42.77,6.1A13,13,0,0,0,212.12,241.26Z"/><path class="cls-1" d="M106.37,265.56h-.07a3,3,0,0,0-3,3.06h6.16A3.06,3.06,0,0,0,106.37,265.56Z"/><path class="cls-1" d="M173.86,168.39A17.38,17.38,0,1,1,191.23,151,17.4,17.4,0,0,1,173.86,168.39Z"/><path class="cls-1" d="M173.86,168.39A17.4,17.4,0,0,1,156.49,151v12.27a17.37,17.37,0,0,0,34.74,0V151A17.4,17.4,0,0,1,173.86,168.39Z"/><path class="cls-1" d="M173.86,158.17a3.07,3.07,0,0,1-3.07-3.07v-8.17a3.07,3.07,0,0,1,6.14,0v8.17A3.07,3.07,0,0,1,173.86,158.17Z"/><path class="cls-1" d="M229,152a27.6,27.6,0,1,1,27.59-27.6A27.63,27.63,0,0,1,229,152Z"/><path class="cls-1" d="M229,152a27.63,27.63,0,0,1-27.59-27.6v12.27a27.59,27.59,0,0,0,55.18,0V124.44A27.63,27.63,0,0,1,229,152Z"/><path class="cls-1" d="M229,135.69h0a3.08,3.08,0,0,1-3.07-3.07V116.27A3.07,3.07,0,0,1,229,113.2h0a3.07,3.07,0,0,1,3.07,3.07v16.35A3.08,3.08,0,0,1,229,135.69Z"/><path class="cls-3" d="M127.51,187.68h-9.2V255h9.2a3,3,0,0,0,3.07-3V190.75A3.08,3.08,0,0,0,127.51,187.68Z"/><path class="cls-4" d="M118.31,251.88v6.31a3.07,3.07,0,0,1-3.06,3.07H77.69a3.07,3.07,0,0,1-3.06-3.07V184.62a3.07,3.07,0,0,1,3.06-3.07h37.56a3.07,3.07,0,0,1,3.06,3.07h0v67.26Z"/><path class="cls-5" d="M221.93,215.37l6.75-3.07c15.33-6.13,36.78-16.74,36.78-16.74A12.25,12.25,0,0,1,282.21,200c3.37,5.89,0,12.26-4.48,16.74,0,0-55.18,44.57-73.58,44.57s-73.57-12.26-73.57-12.26V193.91c30.65-5.09,41.14,3.06,85.83,17.35a10.33,10.33,0,0,1,5.15,4.3Z"/><path class="cls-6" d="M282.21,200a12.2,12.2,0,0,0-5.08-4.8,19.7,19.7,0,0,1-5.53,9.28S222.55,248,204.15,248c-14.66,0-58.74-6.64-73.57-9.81v10.94s55.18,12.26,73.57,12.26,73.58-44.57,73.58-44.57C282.21,212.3,285.58,205.93,282.21,200Z"/><path class="cls-6" d="M212.12,234c5,0,10-2.76,13.36-7.46,3.21-4.52,3.86-9.67,1.79-13.58l-5.34,2.42-.24.12.17.23c1,1.79.48,4.64-1.38,7.26-2,2.89-5.83,5.47-9.65,4.77-6-1.1-41.54-5.95-43.05-6.16a3.06,3.06,0,1,0-.83,6.07c.37.05,36.91,5,42.77,6.11A13,13,0,0,0,212.12,234Z"/><path class="cls-7" d="M106.37,258.28h-.07a3,3,0,0,0-3,3.07h6.16A3.07,3.07,0,0,0,106.37,258.28Z"/><path class="cls-7" d="M173.86,161.11a17.37,17.37,0,1,1,17.37-17.37A17.39,17.39,0,0,1,173.86,161.11Z"/><path class="cls-8" d="M173.86,161.11a17.39,17.39,0,0,1-17.37-17.37V156a17.37,17.37,0,1,0,34.74,0V143.74A17.39,17.39,0,0,1,173.86,161.11Z"/><path class="cls-9" d="M173.86,150.9a3.08,3.08,0,0,1-3.07-3.07v-8.18a3.07,3.07,0,0,1,6.14,0v8.18A3.08,3.08,0,0,1,173.86,150.9Z"/><path class="cls-7" d="M229,144.76a27.59,27.59,0,1,1,27.59-27.59A27.62,27.62,0,0,1,229,144.76Z"/><path class="cls-8" d="M229,144.76a27.62,27.62,0,0,1-27.59-27.59v12.26a27.59,27.59,0,1,0,55.18,0V117.17A27.62,27.62,0,0,1,229,144.76Z"/><path class="cls-9" d="M229,128.41h0a3.07,3.07,0,0,1-3.07-3.06V109a3.06,3.06,0,0,1,3.06-3.07h0a3.06,3.06,0,0,1,3.07,3.07v16.35A3.07,3.07,0,0,1,229,128.41Z"/></g></g></svg>